<?xml version="1.0" encoding="utf-8"?>
<!-- Generator: Adobe Illustrator 23.0.2, SVG Export Plug-In . SVG Version: 6.00 Build 0)  -->
<svg version="1.1" id="Layer_1" xmlns="http://www.w3.org/2000/svg" xmlns:xlink="http://www.w3.org/1999/xlink" x="0px" y="0px"
	 viewBox="0 0 1920 1080" style="enable-background:new 0 0 1920 1080;" xml:space="preserve">
<style type="text/css">
	.st0{fill:#F7F7F7;}
	.st1{fill:#E0E3ED;}
	.st2{fill:#EFEFEF;}
	.st3{opacity:0.5;fill:#E8EAF2;enable-background:new    ;}
	.st4{fill:#DEE4F5;}
	.st5{fill:#EF59AC;}
	.st6{fill:#F4F6F8;}
	.st7{fill:#5053AB;}
	.st8{fill:#A3B3EF;}
	.st9{opacity:0.3;fill:#DEE4F5;enable-background:new    ;}
	.st10{opacity:0.5;fill:#E8EAF2;stroke:#E8EAF2;stroke-width:3;stroke-miterlimit:10;enable-background:new    ;}
	.st11{fill:none;stroke:#E0E3ED;stroke-miterlimit:10;}
	.st12{fill:#FFFFFF;}
	.st13{fill:#F4F4F4;}
	.st14{fill:#E8EAF2;}
	.st15{fill:#2F3155;}
	.st16{opacity:0.3;fill:#0C1238;enable-background:new    ;}
	.st17{fill:#3E4166;}
	.st18{fill:#FFC14D;}
	.st19{fill:#0C1238;}
	.st20{fill:none;stroke:#FFFFFF;stroke-miterlimit:10;}
</style>
<g>
	<path class="st0" d="M687.5,387.5l23.5-0.2l11.8-0.1h11.8l11.8,0.1l5.9,0.1c2,0,3.9,0,5.9,0.1c2,0.1,3.9,0.1,5.9,0.1h17.7
		c0.5,0,1,0.4,1,1c0,2.3,0,4.7-0.1,7l-0.1,7l-0.2,14c0,0.3-0.3,0.6-0.6,0.6H770l-11.8,0.1l-23.5,0.2l-23.5,0.2h-5.9l-5.9-0.1
		c-3.9-0.1-7.8-0.1-11.8-0.1c-0.5,0-1-0.4-1-1v-7l-0.1-7l-0.1-14C686.3,388,686.8,387.5,687.5,387.5L687.5,387.5z M688.7,389.9
		l0.2,26.7l-1.4-1.4c3.9,0,7.8-0.1,11.8,0l11.8,0.2h70.6l-1.3,1.3l-0.2-14l-0.1-7c0-2.3-0.1-4.7,0-7l1.5,1.5
		c-3.9,0-7.8-0.2-11.8-0.3l-5.9-0.2c-2-0.1-3.9-0.1-5.9,0c-2,0.1-3.9,0-5.9,0l-5.9-0.1l-11.8-0.2c-3.9,0-7.8,0.2-11.8,0.2
		c-2,0.1-3.9,0-5.9,0.1h-5.9L688.7,389.9L688.7,389.9z"/>
	<path class="st0" d="M737.4,447.6l-24.6,0.2l-12.3,0.1h-12.3l-12.3-0.1l-6.1-0.1h-3.1l-3.1-0.1c-2-0.1-4.1-0.1-6.1-0.1h-18.4
		c-0.5,0-1-0.4-1-1c0-2.3,0.1-4.7,0.1-7l0.1-7l0.2-14c0-0.3,0.3-0.6,0.6-0.6h12.2l12.3-0.1l24.6-0.2l24.6-0.2c4.1,0,8.2,0,12.3,0.1
		l12.3,0.1c0.5,0,1,0.4,1,1l0.2,27.9C738.6,447,738.1,447.6,737.4,447.6L737.4,447.6z M736.2,445.2l-0.2-26.7l1.4,1.4h-12.3
		l-12.3-0.2h-73.7l1.3-1.3l0.2,14l0.1,7c0,2.3,0.1,4.7,0,7l-1.5-1.5l12.3,0.2l6.1,0.2l3.1,0.1h3.1l3.1-0.1l3.1,0.1l6.1,0.1l12.3,0.2
		c2,0,4.1-0.1,6.1-0.1l6.1-0.1c2-0.1,4.1-0.1,6.1-0.1h6.1L736.2,445.2L736.2,445.2z"/>
	<path class="st0" d="M785.8,477.3l-24.6,0.2l-12.3,0.1h-12.3l-12.3-0.1l-6.1-0.1h-3.1l-3.1-0.1c-2-0.1-4.1-0.1-6.1-0.1h-18.4
		c-0.5,0-1-0.4-1-1c0-2.3,0.1-4.7,0.1-7l0.1-7l0.2-14c0-0.3,0.3-0.6,0.6-0.6h12.2l12.3-0.1l24.6-0.2l24.6-0.2c4.1,0,8.2,0,12.3,0.1
		l12.3,0.1c0.5,0,1,0.4,1,1l0.2,27.9C787,476.8,786.5,477.3,785.8,477.3L785.8,477.3z M784.6,475l-0.2-26.7l1.4,1.4h-12.3l-12.3-0.2
		h-73.7l1.3-1.3l0.2,14l0.1,7c0,2.3,0.1,4.7,0,7l-1.5-1.5l12.3,0.2l6.1,0.2l3.1,0.1h3.1l3.1-0.1l3.1,0.1l6.1,0.1l12.3,0.2
		c2,0,4.1-0.1,6.1-0.1l6.1-0.1c2-0.1,4.1-0.1,6.1-0.1h6.1L784.6,475L784.6,475z"/>
</g>
<path class="st1" d="M190.2,876.4c0,0,108.1-0.1,270.3-0.3c40.5,0,84.5,0.1,130.9,0.1c23.2,0,47.1,0.1,71.5,0.1s49.3,0.4,74.6,0.3
	c50.7,0,103,0.1,156.3,0.2c53.2,0.1,107.3,0.3,161.3,0.4c108.1-0.2,216.2-0.3,317.6-0.5c50.7-0.1,99.7-0.2,146.1-0.3
	c11.6,0,23.1,0,34.4-0.1h33.3c21.9,0.1,43,0.1,63.2,0.1c40.5,0.1,77.7,0.2,110.6,0.1c32.9-0.1,61.7-0.1,85.3-0.1
	c47.3-0.1,74.3-0.1,74.3-0.1v3.2c0,0-27,0-74.3,0.1c-23.6,0-52.4,0.1-85.3,0.1h-110.6c-20.3-0.1-41.4-0.1-63.2-0.2
	c-10.9,0-22,0-33.3-0.1h-180.5c-101.4,0-209.5,0.1-317.6,0.1c-54.1,0.1-108.1,0.2-161.3,0.3h-19.9c-6.6,0-13.2,0-19.8-0.1
	c-13.2,0-26.3-0.1-39.3-0.1c-26.1-0.1-51.8-0.2-77.2-0.4c-12.7-0.1-25.2-0.2-37.7-0.1c-12.4,0-24.8,0.1-37,0.1
	c-24.4-0.1-48.2-0.2-71.5-0.2c-23.2-0.1-45.8-0.1-67.7-0.2c-21.9,0.1-43,0.2-63.2,0.2c-10.1,0-20.1,0.1-29.8,0.1h-80.9
	c-32.9,0-61.7,0-85.3,0.1h-74.3L190.2,876.4L190.2,876.4z"/>
<path class="st2" d="M1650.5,838.3c0,0,3.7,0,10.1-0.1c3.2,0,7.1-0.1,11.6-0.1s9.5-0.1,15-0.1h8.6c3,0,6,0.1,9.2,0.1
	s6.4,0.1,9.7,0.1c3.3,0,6.7,0.3,10.1,0.2c6.9,0,14,0,21.2,0.1c3.6,0.1,7.2,0.1,10.9,0.2c3.7,0,7.3,0.1,11,0.1
	c7.3,0,14.7-0.1,21.9-0.2c7.2-0.1,14.3-0.1,21.2-0.2c6.9-0.1,13.5-0.1,19.8-0.2c6.3-0.1,12.3,0,17.8,0.1s10.5,0.1,15,0.1
	s8.4-0.1,11.6-0.1c6.4-0.1,10.1-0.1,10.1-0.1c0.7,0,1.2,0.5,1.2,1.2s-0.5,1.2-1.2,1.2c0,0-3.7,0-10.1,0.1c-6.4,0-15.6,0.2-26.6,0.1
	c-5.5-0.1-11.5-0.2-17.8-0.2H1811c-13.8,0-28.4,0.1-43.1,0.1c-7.3,0.1-14.7,0.2-21.9,0.2c-7.2,0.1-14.3-0.3-21.2-0.4
	c-1.7,0-3.4-0.1-5.1-0.1s-3.4,0.1-5,0.1c-3.3-0.1-6.5-0.1-9.7-0.2c-3.2,0-6.2-0.1-9.2-0.1s-5.8,0.1-8.6,0.2c-1.4,0-2.7,0.1-4,0.1
	h-32.7c-0.7,0-1.2-0.5-1.2-1.2C1649.3,838.9,1649.8,838.3,1650.5,838.3L1650.5,838.3z M794,838.3c0,0,51.6-0.1,129-0.2h30.2
	c10.4,0,21.2,0.1,32.3,0.1s22.5,0.1,34.1,0.1s23.5,0.3,35.6,0.2c24.2,0,49.2,0.1,74.6,0.1c25.4,0.1,51.2,0.2,77,0.3
	c51.6-0.1,103.2-0.2,151.6-0.3c24.2-0.1,47.6-0.1,69.8-0.2h32.3c10.4,0,20.5,0.1,30.2,0.1c19.4,0,37.1,0.2,52.8,0.1
	c15.7,0,29.4-0.1,40.7-0.1c22.6-0.1,35.5-0.1,35.5-0.1c0.7,0,1.2,0.5,1.2,1.2s-0.5,1.2-1.2,1.2c0,0-12.9,0-35.5,0.1
	c-22.6,0-54.8,0.2-93.6,0.1c-19.4-0.1-40.3-0.3-62.5-0.2h-69.8c-48.4,0-100,0.1-151.6,0.1c-25.8,0.1-51.6,0.2-77,0.2
	s-50.4-0.2-74.6-0.4c-12.1-0.2-24,0.1-35.6,0s-23-0.1-34.1-0.2c-11.1,0-21.9-0.1-32.3-0.1c-10.4,0.1-20.5,0.1-30.2,0.2
	c-4.8,0-9.6,0.1-14.2,0.1H793.8c-0.7,0-1.2-0.5-1.2-1.2S793.3,838.3,794,838.3L794,838.3z"/>
<path class="st1" d="M1477.7,561.2l-192.2,0.2H1190l-95.5-0.1h-1.3V560l0.1-50.8l0.2-50.8l0.1-101.6l0.4-203.2V153h0.6l382-0.5h1.1
	v1.1l0.1,50.8v50.8l-0.2,101.6v50.8l0.1,50.8L1477.7,561.2L1477.7,561.2z M1475.3,558.8l-0.2-202V306l0.1-50.8l0.1-50.8v-50.8
	l1.2,1.2l-382,0.1l1.3-1.3l0.2,101.6l0.1,50.8c0.1,16.9-0.1,33.9-0.1,50.8l-0.4,101.6c-0.1,8.5,0,16.9,0,25.4s0.1,16.9,0,25.4
	l-0.1,50.8l-1-1l47.8,0.1h47.8l47.8-0.2l23.9-0.1L1475.3,558.8L1475.3,558.8z"/>
<path class="st3" d="M1476.5,563.8c-4.4,17.2-19.2,13.5-28,16.5c-16.1,5.3-32,13-48,19.5c-17.3,7-35,14.1-52.6,10.2
	c-10.7-2.4-21.1-8.7-31.8-11.4c-22.6-5.6-45.3,5.7-66.7,20.3c-18.3,12.5-37.4,28-56.7,21.4c-18.5-6.4-33.9-32.4-52.4-37.3
	c-0.7-0.2-1.4-0.3-2.1-0.5c-10.1-1.8-20.6,3.3-30.4-2.1c-9.8-5.3-17.5-29.2-10.3-42.5"/>
<path class="st4" d="M1111.9,167.4H1459v377.2h-347.1V167.4z"/>
<path class="st5" d="M1360.6,404.7c27.1,3.8,51.2,1.4,64.4-32.4c3.5-8.9,4.8-18.6,6.1-28.1c2.7-20.8,3.6-52.4-11.6-69.7
	c-5.9-6.7-15.5-8.9-24.4-9.1c-59.1-1.6-117,13.4-176,10.2c-21.1-1.2-44.2-3.6-61.6,8.5c-2.9,2-5.6,4.5-7.2,7.7
	c-1.4,2.9-1.6,6.1-1.9,9.3c-1.9,23.2-3.7,46.3-5.6,69.5c-0.5,6-0.9,12.3,2,17.5c2.7,4.9,7.9,7.9,13,10.2
	c53.5,24.4,102.6-6.5,156.4-1.2C1329.8,398.7,1345.7,402.6,1360.6,404.7L1360.6,404.7z"/>
<path class="st6" d="M1174.9,441.8c-12,2.4-12.6,11-12.6,23.5c0,9.4,0.6,18.7,1.8,28.1c0.6,4.2,1.3,8.5,3.6,12.2
	c4.9,7.9,15.7,11.4,25.7,12.6c29.9,3.6,63.4,0.2,93.3-1.8c4.6-0.3,9.6-0.8,12.7-3.7c2.3-2.1,3.1-5.1,3.8-7.9
	c3.4-15,4.6-32.9-0.7-47.7c-0.7-2-1.6-4-3.1-5.7c-3.2-3.6-8.7-4.8-13.8-5.5c-17.4-2.4-34.3,0.7-51.7-0.3c-17.3-1-34.4-4.6-51.8-4.4
	C1179.3,441.2,1176.9,441.4,1174.9,441.8L1174.9,441.8z M1276.9,226.5c0,0.7,0.1,1.4,0.3,2.1c1.9,8.5,11.1,13.1,19.3,16.6
	c17.7,7.5,28.3-4.4,33.9-20.8c2.6-7.7,1.7-16.9-4.2-22.6c-4.6-4.5-11.4-6.1-18-6.4c-5.8-0.2-11.9,0.5-16.7,3.6
	C1284.2,203.8,1276.4,218,1276.9,226.5L1276.9,226.5z M1344.3,223.9c-0.5,11,6.3,20.4,19.6,20.7c14.5,0.4,21.7-13.4,23.7-25.6
	c0.9-5.9,0-12.4-3.9-17.1c-3.9-4.6-10.4-6.9-16.5-6.3c-6.1,0.7-11.8,4.1-15.5,8.8c-2.7,3.5-4.5,7.5-5.9,11.7
	C1344.9,218.8,1344.4,221.4,1344.3,223.9L1344.3,223.9z"/>
<path class="st7" d="M1414.7,237.2c10.7,1.7,20.2-6.7,19.1-18.3c-0.3-2.6-0.9-5.2-2.2-7.5c-2.5-4.3-7.4-7.2-12.4-7.3
	c-16.7-0.6-25.8,23.2-10.3,31.2C1410.8,236.2,1412.7,236.9,1414.7,237.2L1414.7,237.2z M1151.6,229.4c1.3,2.7,3.4,5.3,6.4,7.2
	c9,5.8,28.6,10.1,39.5,11.9c9.6,1.6,21-0.3,26.4-7.6c1.7-2.3,2.6-4.9,3.5-7.5c1.1-3,2.1-6,3.2-9c5.8-16.4-7.9-28.6-27.1-26.4
	c-9.6,1.1-17.2,5.4-25.5,9.4c-6.9,3.3-11,2.8-18.1,5C1150.9,215.1,1148.6,222.8,1151.6,229.4L1151.6,229.4z"/>
<path class="st8" d="M1146.3,462.1c1,0.3,2,0.5,3,0.7s2,0.4,3,0.7l3,0.6c1,0.2,2.1,0.2,3.1,0.2c0.5,0,1,0.1,1.5,0.1s1,0.1,1.5,0.2
	c1,0.1,2.1,0.3,3.1,0.3s2.1-0.1,3.1-0.1c1-0.1,2.1-0.2,3.1-0.3c1-0.1,2-0.3,3.1-0.4c1-0.1,2-0.3,3-0.5l1.5-0.2
	c0.5-0.1,0.9-0.2,1.4-0.3c1-0.2,2-0.4,2.9-0.7c0.9-0.3,1.8-0.8,2.6-1.3s1.5-1.2,2.1-1.8c0.6-0.7,1.1-1.3,1.5-2.1
	c0.3-0.7,0.5-1.6,0.5-2.4l0.7,1c-0.8-0.5-1.8-0.8-2.8-0.8s-2,0.1-2.9,0.5s-1.7,1-2.3,1.8c-0.1,0.1-0.3,0.5-0.4,0.6l-0.3,0.6
	c-0.2,0.5-0.2,0.9-0.3,1.4c-0.1,0.9-0.2,1.9,0,2.9c0.1,0.5,0.2,1,0.5,1.4c0.2,0.4,0.6,0.8,1,1.1c0.8,0.6,1.6,1.3,2.6,1.7l0.3,0.2
	l0.4,0.2l0.8,0.3c0.5,0.3,1,0.4,1.5,0.6c2,0.7,4.3,1,6.5,1.1c1.1,0,2.2,0,3.4-0.1c1.1-0.1,2.2-0.3,3.3-0.5c2.2-0.3,4.6-0.5,6.7-1.4
	c2.1-1,4.3-1.7,6.5-2.4s4.4-1.5,6.5-2.4s4.3-1.8,6.5-2.5s4.5-1.3,6.8-1.7c2.3-0.4,4.7-0.4,7-0.4c2.3,0.1,4.7,0.3,7,1.1
	s4.5,2.2,5.9,4.5c0.3,0.6,0.6,1.2,0.7,1.9l0.1,0.5v1l-0.1,0.6c-0.2,1.5-1,2.7-2,3.7c-1,0.9-2.3,1.5-3.7,1.7c-1.4,0.1-3-0.4-3.9-1.6
	l-0.3-0.3l0.1-0.4c0.4-1.6,1.1-3,2-4.4c0.9-1.3,2-2.5,3.3-3.4s2.6-1.8,4.2-2.2c0.4-0.1,0.7-0.2,1.1-0.3c0.4-0.1,0.7-0.2,1.1-0.3
	c0.2,0,0.3-0.1,0.6-0.2l0.5-0.1l1.1-0.3c1.5-0.3,3-0.7,4.6-0.7c1.5-0.1,3,0.1,4.5,0.3c1.5,0.2,3,0.3,4.5,0.4c0.7,0,1.5,0.1,2.2,0.2
	s1.5,0.3,2.2,0.5s1.5,0.3,2.2,0.3c0.7,0.1,1.5,0.1,2.2,0.1c1.5,0.2,2.9,0.5,4.3,0.8s2.9,0.6,4.3,0.8c1.5,0.2,2.9,0.2,4.4,0.2
	c1.4,0,2.9,0.1,4.3,0.2c1.4,0,2.9-0.2,4.3-0.6s2.7-0.9,4-1.4s2.5-1.2,3.7-1.9l1.3,2c-1.3,0.8-2.7,1.6-4.2,2.1
	c-0.4,0.1-0.7,0.3-1.1,0.4s-0.7,0.2-1.1,0.3c-0.8,0.1-1.5,0.3-2.3,0.4c-1.5,0.2-3,0.3-4.5,0.5s-3,0.3-4.5,0.2
	c-1.5-0.1-3-0.4-4.5-0.6s-3-0.3-4.5-0.4s-3-0.2-4.4-0.5c-0.7-0.2-1.4-0.4-2.1-0.7c-0.7-0.2-1.4-0.3-2.2-0.4c-1.5,0-2.9-0.2-4.4-0.5
	c-1.4-0.3-2.9-0.5-4.3-0.5c-1.4,0.1-2.9,0.2-4.3,0.3c-1.4,0.1-2.8,0.1-4.2,0.3l-1.1,0.2l-0.5,0.1c-0.1,0-0.3,0.1-0.5,0.1
	c-0.7,0.2-1.3,0.5-2,0.8c-1.2,0.6-2.5,1.2-3.7,1.9c-1.2,0.7-2.2,1.6-3.1,2.6s-1.5,2.3-1.8,3.6l-0.2-0.8c0.3,0.3,0.6,0.5,1,0.6
	s0.8,0,1.2,0c0.4-0.1,0.8-0.3,1.2-0.6c0.2-0.1,0.4-0.2,0.6-0.4c0.2-0.1,0.3-0.3,0.5-0.5c0.3-0.3,0.6-0.7,0.8-1l0.3-0.6
	c0-0.2,0.2-0.4,0.1-0.5c0.1-0.7-0.1-1.6-0.5-2.5c-0.8-1.7-2.6-3-4.5-3.9s-4.1-1.6-6.4-1.7c-1.1,0-2.3,0-3.4,0.2s-2.2,0.3-3.3,0.6
	c-0.6,0.1-1.1,0.2-1.6,0.4c-0.5,0.1-1.1,0.3-1.6,0.4c-1.1,0.3-2.2,0.6-3.2,1c-2.1,0.8-4.3,1.4-6.5,2.1c-0.6,0.2-1.1,0.4-1.6,0.6
	s-1.1,0.4-1.6,0.7c-1.1,0.5-2.1,1.1-3.1,1.6c-1,0.6-2.1,1.1-3.2,1.5c-1.1,0.5-2.3,0.6-3.5,0.7c-2.4,0.3-4.4,1.7-6.8,2.2l-1.8,0.3
	l-1.8,0.2c-1.2,0.1-2.4,0.1-3.6,0c-2.4-0.1-4.8-0.4-7.2-1.2c-0.6-0.2-1.2-0.4-1.7-0.6l-0.8-0.3l-0.4-0.2c-0.2-0.1-0.3-0.1-0.5-0.2
	c-0.6-0.3-1.1-0.6-1.6-1s-1.1-0.8-1.5-1.3c-0.4-0.6-0.7-1.1-1-1.7s-0.6-1.2-0.8-1.8c-0.5-1.2-0.6-2.6-0.3-3.9
	c0.6-2.6,2.6-4.8,4.9-5.7c1.2-0.5,2.4-0.7,3.7-0.7c1.3,0,2.5,0.3,3.7,0.9l0.4,0.2v0.4c0.1,1.2,0,2.3-0.5,3.4s-1.1,2-1.9,2.8
	s-1.7,1.4-2.7,2c-0.5,0.3-1,0.5-1.4,0.8c-0.5,0.2-1,0.5-1.5,0.7c-1,0.4-2,0.9-3,1.2c-0.5,0.2-1.1,0.3-1.6,0.4l-0.8,0.2h-0.8
	c-1,0.1-2.1,0.3-3.2,0.3c-1.1,0.1-2.1,0.1-3.2,0.1h-8l-1.6,0.1c-1.1,0-2.1,0-3.2-0.1c-1-0.1-2.1-0.4-3.1-0.5l-3.1-0.4
	c-2.1-0.3-4.2-0.7-6.2-1.2L1146.3,462.1L1146.3,462.1z M1143.5,480.1c0,0,0.7,0,2,0.1c0.6,0,1.4,0,2.4,0.1c0.9,0.1,2,0.1,3.2,0.2
	c0.6,0,1.2-0.1,1.9-0.1s1.3,0,2.1,0.1c0.7,0.1,1.5,0.2,2.2,0.2h2.4c1.7-0.1,3.4-0.2,5.3-0.3c0.9,0,1.9-0.1,2.9-0.1s2,0.1,3,0.2
	s2.1,0.1,3.1,0c1.1-0.1,2.1-0.2,3.3-0.2c1.1,0,2.2,0.1,3.4,0.2c1.1,0.1,2.3,0.1,3.5,0.2c2.3,0.1,4.8,0.2,7.2-0.1
	c0.6,0,1.2-0.1,1.9,0c0.6,0.1,1.2,0.2,1.9,0.3c0.6,0.1,1.3,0,1.9-0.1s1.3,0,1.9,0c2.6,0,5.2,0.1,7.8,0.1h4c1.3,0,2.7,0,4,0.2
	s2.7,0.3,4,0c1.4-0.2,2.7-0.1,4.1,0s2.7,0.2,4.1,0.2s2.7-0.1,4.1-0.2c2.7-0.1,5.5-0.1,8.2-0.1c1.4,0,2.7,0.1,4.1,0.1s2.7-0.1,4-0.2
	c2.7-0.3,5.3-0.4,8-0.6c1.3-0.1,2.6-0.1,3.9-0.2h1.9c0.6,0,1.3,0.1,1.9,0.1c2.6,0.2,5.1-0.2,7.5-0.4c0.6-0.1,1.2-0.1,1.8-0.1
	c0.6,0,1.2-0.1,1.8-0.1c0.6,0,1.2,0.1,1.8,0.1h1.8c2.3-0.2,4.6-0.4,6.8-0.1c2.2,0.3,4.3-0.3,6.4,0s4-0.6,5.9-0.3
	c1.9,0.1,3.6,0.2,5.3,0.1c1.7-0.1,3.2-0.4,4.7-0.3c1.4,0.1,2.8,0.1,4,0s2.3-0.3,3.2-0.4c0.9-0.1,1.7-0.1,2.4-0.1
	c0.6,0,1.1-0.1,1.5-0.1h0.5l0.1,2.4h-4.4c-0.9,0-2-0.1-3.2-0.1s-2.5,0.1-3.9,0.4c-0.7,0.1-1.5,0.1-2.2,0.1c-0.8,0-1.6-0.1-2.4-0.1
	c-1.7,0-3.4,0.3-5.3,0.5c-0.9,0.1-1.9,0.2-2.9-0.1c-1-0.2-2-0.2-3,0c-2,0.4-4.2-0.3-6.4,0.1c-2.2,0.5-4.5,0.3-6.8,0.1h-1.8
	c-0.6,0.1-1.2,0.1-1.8,0.2h-3.6c-2.5-0.1-5-0.3-7.5,0.1c-0.6,0.1-1.3,0.2-1.9,0.3c-0.6,0-1.3,0.1-1.9,0.1c-1.3,0-2.6,0-3.9,0.1
	c-1.3,0-2.6,0-4-0.1c-1.3,0-2.7-0.1-4-0.3c-1.3-0.2-2.7-0.2-4-0.2c-1.4,0.1-2.7,0.3-4.1,0.4c-2.7,0.2-5.4,0.3-8.2,0.2
	c-1.4-0.1-2.7-0.3-4.1-0.3s-2.7,0.2-4.1,0.4c-0.7,0.1-1.4,0.2-2,0.2c-0.7,0.1-1.4,0-2-0.2c-1.4-0.4-2.7-0.3-4,0
	c-0.7,0.2-1.3,0.3-2,0.3c-0.7,0.1-1.3,0-2,0c-1.3-0.1-2.7-0.1-4-0.2c-2.6,0-5.2,0-7.8-0.1c-0.6,0-1.3,0-1.9-0.1
	c-0.6-0.2-1.3-0.3-1.9-0.2c-0.6,0-1.3,0.2-1.9,0.2h-1.9c-2.5-0.3-4.9-0.3-7.2-0.4h-6.8c-1.1,0-2.2-0.1-3.3-0.1c-1.1,0-2.1,0-3.1,0.1
	c-4.1,0.5-7.8-0.1-11.2-0.2c-0.8,0-1.6-0.1-2.4-0.1s-1.5,0.1-2.2,0.2s-1.4,0.1-2.1,0.1c-0.7-0.1-1.3-0.1-1.9-0.2
	c-1.2,0-2.3,0.1-3.2,0.1h-4.4L1143.5,480.1L1143.5,480.1z M1180.7,494.1h4c0.9,0,1.8,0.1,2.9,0.1c0.6,0,1.1-0.1,1.7-0.2h1.9
	c0.7,0.1,1.4,0.2,2.1,0.1c0.7,0,1.5-0.1,2.2-0.1c1.5-0.1,3.2-0.3,4.9-0.4c0.9,0,1.7-0.1,2.6-0.1s1.8,0.1,2.8,0.1
	c0.9,0.1,1.9,0.1,2.9,0s2-0.2,3-0.2s2.1,0,3.1,0.1c1.1,0.1,2.1,0.1,3.2,0.2c2.2,0,4.4,0.1,6.6-0.3c0.6,0,1.1-0.1,1.7,0
	c0.6,0,1.2,0.2,1.7,0.2c0.6,0.1,1.2,0,1.7-0.1c0.6-0.1,1.2-0.1,1.8-0.1h7.2c1.2,0,2.4,0,3.7-0.1c1.2-0.1,2.5,0,3.7,0.2
	s2.5,0.2,3.7,0s2.5-0.1,3.7,0c1.3,0.1,2.5,0.2,3.8,0.2s2.5-0.1,3.8-0.2c2.5-0.1,5-0.1,7.5-0.1c1.3,0,2.5,0.1,3.8,0.1
	c1.2,0,2.5-0.1,3.7-0.2c2.5-0.3,4.9-0.4,7.4-0.6c1.2,0,2.4-0.1,3.6-0.1h1.8c0.6,0,1.2,0.1,1.8,0.1c2.4,0.2,4.7-0.1,6.9-0.3
	c0.6-0.1,1.1-0.1,1.7-0.1s1.1-0.1,1.7-0.1s1.1,0.1,1.7,0.1h1.6c2.2-0.2,4.3-0.4,6.3,0c2,0.3,4-0.2,5.9,0.1c1.9,0.4,3.7-0.5,5.4-0.2
	c1.7,0.1,3.4,0.2,4.9,0.2c1.5-0.1,3-0.3,4.3-0.2c1.3,0.1,2.5,0.2,3.6,0c1.1-0.1,2.1-0.2,2.9-0.3c0.9,0,1.6-0.1,2.2-0.1h1.8v2.4h-4
	c-0.9,0-1.8-0.1-2.9-0.2s-2.3,0.1-3.6,0.3c-0.7,0.1-1.4,0.1-2.1,0.1s-1.5-0.1-2.2-0.1c-1.5,0-3.2,0.2-4.9,0.4
	c-0.9,0.1-1.7,0.2-2.6-0.1c-0.9-0.2-1.8-0.2-2.8,0c-1.9,0.4-3.9-0.4-5.9,0s-4.1,0.2-6.3,0.1c-1.1-0.1-2.2,0-3.3,0.2h-1.7
	c-0.6,0-1.1,0-1.7-0.1c-2.3-0.1-4.6-0.3-6.9,0l-1.8,0.3c-0.6,0-1.2,0.1-1.8,0.1c-1.2,0-2.4,0-3.6,0.1c-1.2,0-2.4-0.1-3.7-0.1
	c-1.2,0-2.5-0.1-3.7-0.3c-1.2-0.2-2.5-0.2-3.7-0.2c-1.2,0.1-2.5,0.3-3.7,0.4c-2.5,0.2-5,0.3-7.5,0.3c-1.3-0.1-2.5-0.3-3.8-0.2
	c-1.3,0-2.5,0.2-3.8,0.5c-0.6,0.1-1.2,0.2-1.9,0.2c-0.6,0.1-1.2,0-1.9-0.2c-1.3-0.4-2.5-0.3-3.7,0c-0.6,0.2-1.2,0.3-1.8,0.3
	c-0.6,0.1-1.2,0-1.8,0c-1.2,0-2.4-0.1-3.7-0.1h-7.2c-0.6,0-1.2,0-1.8-0.1c-0.6-0.1-1.2-0.2-1.7-0.2c-0.6,0-1.2,0.2-1.7,0.2
	c-0.6,0.1-1.1,0-1.7,0c-2.3-0.3-4.5-0.2-6.7-0.3c-2.2,0.1-4.3,0.1-6.3,0.2h-3c-1,0-1.9,0-2.9,0.2c-3.8,0.6-7.2,0.1-10.3,0.1h-2.2
	c-0.7,0-1.4,0.1-2.1,0.2s-1.3,0.1-1.9,0.1s-1.2-0.1-1.7-0.1c-1.1,0-2.1,0.1-2.9,0.2c-0.9,0.1-1.6,0.1-2.2,0.1
	c-1.2,0.1-1.8,0.1-1.8,0.1L1180.7,494.1L1180.7,494.1z"/>
<path class="st9" d="M1458.8,167.3c-3.8,6.5-7.6,17.3-22.8,21.3c-17,4.5-42,5.3-62.7,3.4s-42.2-4.4-63-2.6
	c-21.8,1.9-37.9,8.3-48.8,15.1s-18.2,14.3-30.6,20.8s-31.9,12.1-54.4,12.2c-11,0-22.3-1.2-32.9-0.2c-8.5,0.9-17.5,3.2-25.3,1.7
	c-6.7-1.3-7.3-4.4-7.1-7.1c1.6-21.5,1.5-43.1-0.2-64.6"/>
<path class="st10" d="M1919,627.9c-3.4,14.5-15,11.5-21.8,13.9c-12.5,4.5-24.9,11-37.4,16.5c-13.5,5.9-27.2,11.9-40.9,8.6
	c-8.4-2-16.4-7.4-24.8-9.6c-17.6-4.7-35.3,4.8-51.9,17.2c-14.3,10.6-29.1,23.7-44.1,18.1c-14.4-5.4-26.4-27.4-40.8-31.6
	c-0.5-0.2-1.1-0.3-1.6-0.4c-7.9-1.5-16.1,2.8-23.7-1.7s-13.6-24.7-8-36"/>
<path class="st1" d="M1917.6,629.8L1622,630h-1.5v-1.4l0.8-545.2v-0.6h0.6l294.4-0.4h1v1l0.2,136.3l0.1,68.2l-0.1,68.2l-0.1,68.2
	v68.2L1917.6,629.8z M1915.2,627.4l-0.1-135.1V355.9l0.2-68.2V83.2l1.2,1.2L1622,84.7l1.3-1.3l0.2,136.3v34.1l-0.1,34.1l-0.2,68.2
	l-0.1,34.1c0,11.4-0.1,22.7-0.1,34.1l0.1,34.1l-0.1,34.1l-0.2,68.2l-0.1,34.1l0.1,34.1l-0.9-0.9l73.6-0.2h73.6L1915.2,627.4
	L1915.2,627.4z"/>
<path class="st1" d="M1901,614.3l-262.4,0.2h-1.5v-1.4l0.8-514.3v-0.6h0.6l261.2-0.3h1v1l0.2,128.6l0.1,64.3l-0.1,64.3l-0.1,64.3
	v64.3L1901,614.3L1901,614.3z M1898.6,611.9l-0.1-127.4v-64.3l0.1-64.3l0.2-64.3V98.7l1.2,1.2l-261.2,0.1l1.3-1.3l0.2,128.6v32.1
	l-0.1,32.1l-0.2,64.3l-0.1,32.1l-0.1,16.1v16.1c0,10.7,0.1,21.4,0,32.1l-0.1,32.1l-0.2,64.3l-0.1,32.1l0.1,32.1l-0.9-0.9l32.6-0.1
	l32.6-0.1h65.3L1898.6,611.9L1898.6,611.9z"/>
<path class="st10" d="M1752.5,175.1c15.2,6.2,39.1,6.2,50.8-7.5c2.3-2.8,2.7-6.6,2.6-10.3c-0.4-17.6-7.4-35.5-26.6-36.8
	c-7.2-0.5-14.7,0.2-20.9,3.8c-11.8,6.9-15.6,22.3-15.8,36c0,2.7,0,5.5,1.2,7.9C1745.5,171.7,1749,173.7,1752.5,175.1L1752.5,175.1z
	 M1865.2,236c-3.2-10.1-13.8-17.8-21.6-24.8c-4.1-3.7-9.8-5-15.3-5.9c-22.7-3.6-46.7-1.5-69.7-1.5c-12-0.1-24.2-0.1-35.6,3.4
	c-11.5,3.5-22.3,11-26.7,22.2c-5.3,13.4-0.6,28.3,2.5,42.3c2.8,12.6,4.2,25.6,4.2,38.5c0,4.4,0,9.2,3,12.4c1.2,1.3,2.7,2.1,4.3,2.9
	c34.1,17.6,75.1,11.6,113,5c6.6-1.1,13.3-2.3,19.2-5.5c15.7-8.3,21.7-27.5,24.3-45.1C1868.9,265.3,1869.7,250.1,1865.2,236
	L1865.2,236z M1819,372.1c-2.4,5.9,0.2,12.9,4.8,17.3s10.8,6.6,17,8.4c2.6,0.7,5.3,1.4,8,0.9c10.7-2.1,13.6-17,8.9-25.3
	c-2.3-4.1-6.2-7-9.9-9.8c-1.6-1.2-3.2-2.4-5.2-2.7c-2.2-0.4-4.4,0.4-6.5,1.2C1829.7,364.3,1821.9,365,1819,372.1L1819,372.1z
	 M1825.8,412.1c-4.7,1.1-9.1,3.8-11.6,7.9c-3.5,5.9-2,13.9,2.1,19.4s10.4,9,16.8,11.6c3.8,1.5,8,2.8,12,1.8
	c12.8-3.2,16.6-21.8,10.1-31.6C1849.3,412.3,1835.7,409.7,1825.8,412.1L1825.8,412.1z M1832.2,497c4.5,5.7,12.9,6.3,20.1,5.2
	c3.4-0.5,7-1.3,9.7-3.5c11.2-8.9,3.4-32.4-10.3-33.8c-5-0.5-9.9,1-14.6,2.9c-2.6,1-5.2,2.2-6.9,4.3
	C1826.6,476.5,1828.9,492.9,1832.2,497L1832.2,497z M1721.3,500.3c0.3,0.1,0.6,0.2,1,0.2c16,3.6,46.6,4.7,57.6-9
	c12.6-15.6,16.3-42.6,15.5-61.9c-2-45.6-37-85.3-84.9-74.3c-6.9,1.6-13.8,4.3-18.3,9.7c-4.3,5.1-5.8,12-7.5,18.4
	c-6.9,27.4-18,56.8-6.6,82.7C1685.7,483.7,1702.8,495.8,1721.3,500.3L1721.3,500.3z M1787.4,584.7c9.8-0.5,19.6-0.8,29.4-0.2
	c19.4,1.1,39-5.2,54.3-17.2c4.5-3.5,8.9-8.6,7.9-14.2c-0.5-2.8-2.3-5.1-4.3-7.1c-12.3-13.2-30.8-20.4-48.8-18.7
	c-10,0.9-19.5,4.3-29.4,5.9c-11.3,1.9-23.1,1.3-34.2-1.6c-11.4-3-22.4-8.4-34.3-8.6c-22.1-0.2-39.7,16.8-47,36.1
	c-2.4,6.3-3.3,14.3,1.5,19.1c2.4,2.4,5.9,3.5,9.2,4.4C1723.9,591.2,1755.6,586.4,1787.4,584.7L1787.4,584.7z M1001.5,256.5
	c-0.9,6.7-1.4,13.7-3.8,20c-5.4,14.2-20.1,23-34.9,26.1c-14.9,3.1-30.2,1.5-45.4,1.1c-17.6-0.5-35.3,0.7-52.7,3.4
	c-14.7,2.3-29.4,5.7-44.3,5.2c-7-0.2-14-1.4-20.8-3.4c-7.1-2.1-14.1-5.3-19.1-10.7c-9.6-10.6-13.6-28.8-14.2-42.6"/>
<g>
	<path class="st6" d="M765.6,83.4h235.9v173.1H765.6V83.4z"/>
	<path class="st1" d="M1002.7,257.7L883.5,258l-59-0.1l-29.5-0.1c-9.8-0.1-19.7,0-29.5-0.1h-1.2v-1.2l0.1-10.8V170l0.4-86.6v-0.6
		h30.1l29.5-0.1l59-0.1l118-0.3h1.2v1.2l-0.2,86.6L1002.7,257.7L1002.7,257.7z M1000.3,255.3l-0.2-85.4v-43.2l0.2-43.3l1.2,1.2
		l-235.9,0.1l1.3-1.3l0.3,86.6l-0.3,43.3l-0.2,21.6l-0.1,10.8l0.1,10.8l-1.1-1.1c4.9-0.1,9.8,0,14.7,0l14.7,0.1l29.5,0.1l14.7,0.1
		h14.7l29.5-0.2c9.8-0.1,19.7,0,29.5-0.1h29.5L1000.3,255.3L1000.3,255.3z"/>
	<path class="st6" d="M780,95.9h207v148H780V95.9z"/>
	<path class="st1" d="M988.2,245.2l-104.7,0.2h-25.9l-25.9-0.1l-25.9-0.1h-12.9c-4.3,0-8.6-0.1-12.9-0.1h-1.2V244l0.1-9.3v-64.8
		l0.2-37l0.1-37v-0.6h26.5l25.9-0.1l51.8-0.1L987,94.7h1.2v1.2l-0.1,37l-0.1,37L988.2,245.2L988.2,245.2z M985.8,242.8l-0.2-72.8
		v-37l0.2-37l1.2,1.2l-207,0.1l1.3-1.3l0.3,74l-0.3,37l-0.2,18.5l-0.1,9.3v9.3l-1.1-1.1c4.3,0,8.6-0.1,12.9,0l12.9,0.1l25.9,0.1
		l12.9,0.1h13l25.9-0.2c8.6-0.1,17.3,0,25.9-0.1h25.9L985.8,242.8L985.8,242.8z"/>
	<path class="st10" d="M805.5,138c4.2,0.5,8.6-0.5,12.7-1.9c5.6-1.9,11.4-5.4,12.6-11.2c0.9-4.3-1.1-8.6-3.2-12.5
		c-0.9-1.7-1.9-3.4-3.5-4.6c-4-3.1-11.3,0.2-15,2.3c-8.2,4.8-21.6,24.2-5.2,27.6C804.4,137.8,805,137.9,805.5,138L805.5,138z
		 M884.6,133.6c4.6-0.1,8.6-4.1,9.2-8.7c0.2-1.6,0-3.3-0.9-4.5c-1.5-2-4.4-2.2-6.9-1.8c-2.2,0.4-4.2,1.1-6.2,2.1
		c-2.3,1.3-4.5,3.2-4.9,5.8C874,131.4,880.9,133.7,884.6,133.6L884.6,133.6z M907.8,117.2c-0.3,1.2-0.5,2.4-0.1,3.6
		c0.6,1.9,2.3,3.2,3.9,4.2c3.5,2.1,7.4,3.6,11.4,3.4s8.1-2.5,9.7-6.2c2.7-6.5-3.4-12.2-9.4-13.4C917.3,107.6,909.6,111,907.8,117.2
		L907.8,117.2z M951.8,130.9c2.3,1.1,4.9,1.2,7.4,1.1c2.6-0.2,5.3-0.6,7.5-2c4.5-2.9,4.1-8.3-0.2-11.2c-4.4-2.9-12.2-3.6-16.5,0.1
		C946.3,122.1,947.4,128.8,951.8,130.9z M959.6,148.4c-9.8-6.1-22-7.1-33.4-5.6s-22.4,5.5-33.4,8.7c-11.1,3.2-22.6,5.8-34.1,4.6
		c-7.8-0.8-15.3-3.4-23-5c-7.7-1.5-16-2-23.1,1.4c-4.4,2-8,5.4-11.3,8.9c-4.8,5.1-9.2,11.2-9.7,18.3c-0.8,9.9,6.2,18.9,14.4,24.7
		c8.6,6.1,18.8,9.9,29.3,10.9c19.5,1.9,37.1-6.8,56.2-7.9c11.4-0.6,22.6,3.1,33.7,5.7c19.6,4.5,41.6,1.7,49.5-19.8
		c2.2-6,2-12.8,0.4-19C972.6,164.3,968.6,154,959.6,148.4L959.6,148.4z M861,227c0.8,2.2,3.6,2.8,5.9,2.6c1.4-0.1,4.9-0.6,5.5-2
		c0.8-1.8-1.8-5.1-3.1-6.1C865.1,218.3,859.1,221.3,861,227L861,227z"/>
	<path class="st10" d="M892,220.1c-1.8-6.3-10.8-4.6-9.5,1.8C884,228.6,894.1,227.2,892,220.1z M904.2,225.8
		c0.5,0.6,1.1,1.1,1.8,1.4c3.4,1.8,8.2-1,6.2-5.2c-0.8-1.6-2.4-2.5-4-3.2c-0.3-0.2-0.6-0.3-1-0.3c-0.3,0.1-0.5,0.3-0.8,0.5
		C904.6,220.7,902.3,223.2,904.2,225.8z"/>
</g>
<g>
	<path class="st10" d="M1001.5,468.6c-1.6,12.2-6.9,21.7-18.2,27.3c-8.8,4.4-18.6,6.4-27.1,11.4c-11.3,6.7-20.5,19-33.6,19.7
		c-11.7,0.6-22.3-8.4-34-8.3c-12.1,0.2-21.7,9.8-32.5,15.2c-15.8,7.9-34.5,6.8-51.8,3.6c-7.5-1.3-15.1-3.1-21.6-7.2
		c-10.7-6.8-13.9-22.5-14.7-34.2c-0.6-9,0.1-18.1,0-27.2"/>
	<path class="st6" d="M765.6,295.5h235.9v173.1H765.6V295.5z"/>
	<path class="st1" d="M1002.7,469.8L883.5,470l-59-0.1L795,470c-9.8,0-19.7,0-29.5-0.1h-1.2v-1.2l0.1-10.8v-75.7l0.4-86.6V295h30.1
		l29.5-0.1l59-0.1l118-0.3h1.2v1.2l-0.2,86.6L1002.7,469.8L1002.7,469.8z M1000.3,467.4l-0.2-85.4v-43.2l0.2-43.3l1.2,1.2
		l-235.9,0.1l1.3-1.3l0.3,86.6l-0.3,43.3l-0.2,21.6l-0.1,10.8l0.1,10.8l-1.1-1.1h14.7l14.7,0.1l29.5,0.1l14.7,0.1h14.7l29.5-0.2
		c9.8-0.1,19.7,0,29.5-0.1h29.5L1000.3,467.4L1000.3,467.4z"/>
	<path class="st6" d="M780,308h207v148H780V308z"/>
	<path class="st1" d="M988.2,457.3l-104.7,0.3h-25.9l-25.9-0.1l-25.9-0.1h-12.9c-4.3,0-8.6-0.1-12.9-0.1h-1.2v-1.1l0.1-9.3v-64.8
		l0.2-37l0.1-37v-0.6h26.5l25.9-0.1l51.8-0.1l103.5-0.3h1.2v1.2l-0.1,37l-0.1,37L988.2,457.3L988.2,457.3z M985.8,454.9l-0.2-72.8
		v-37l0.2-37l1.2,1.2l-207,0.1l1.3-1.3l0.3,74l-0.3,37l-0.2,18.5l-0.1,9.3v9.3l-1-1.2c4.3,0,8.6-0.1,12.9,0l12.9,0.1l25.9,0.1
		l12.9,0.1h13l25.9-0.2c8.6-0.1,17.3,0,25.9-0.1h25.9L985.8,454.9L985.8,454.9z"/>
	<path class="st10" d="M927.5,399.2c5.4-0.8,10.7-2.1,15.8-3.8c7.6-2.5,15-5.7,21.3-10.6s11.5-11.5,13.6-19.2
		c2.6-9.4,0.1-18.5-1.4-27.8c-1.1-7.3-4.1-14.2-10.5-18.5c-5-3.4-11.2-4.4-17.2-4.9c-10.5-0.9-21.1-0.6-31.5,1.1
		c-16.9,2.7-33,7.6-50.1,8.5c-8.5,0.4-15.9-0.2-24.3-1.9c-8-1.6-16.3-3.4-24.4-1.7c-8.6,1.8-16,7.5-20.9,14.7s-7.4,15.9-8.1,24.6
		c-0.9,11.1,15,17.1,23.7,18c9.8,0.9,19.6-1.1,29.5-0.9c7,0.1,13.9,1.4,20.4,3.8c13.5,4.8,25.2,14.1,39.1,17.7
		C910.7,400.4,919.2,400.4,927.5,399.2L927.5,399.2z M835.6,390.5c-10.1,0.7-20.2,5-26.9,12.7s-9.6,18.7-6.7,28.4
		c1,3.2,2.6,6.3,5.1,8.5c3.2,2.9,7.6,4.1,11.8,5.1c10.4,2.6,21.5,5.1,31.7,1.7c9.9-3.3,18.8-11.6,26.7-18.2
		c4.1-3.4,8.2-7.9,8.2-13.2c0-4.6-3-8.6-6.4-11.8C867.7,393,850.9,389.5,835.6,390.5L835.6,390.5z"/>
	<path class="st11" d="M829.4,414.5c10.7,2.3,22.2,0.7,31.8-4.5c1.8-1,3.9-2.8,3.2-4.7c-0.8-2.2-4-2-6.2-1.1
		c-3.4,1.4-7.1,4.8-5.6,8.2c0.7,1.5,2.2,2.4,3.6,3.1c6.1,2.9,13.2,3.5,19.6,1.6c4.7-1.3,8.9-3.8,13.2-5.9s9-4,13.8-4
		c4.8,0.1,9.9,2.4,11.9,6.8c0.7,1.4,1,3.2,0.4,4.6s-2.3,2.5-3.8,2c-2-0.7-2.3-3.5-1.1-5.2s3.3-2.5,5.3-3c14.4-3.8,29.6-0.6,44.4-2
		c1.4-0.1,3-0.4,4-1.4 M838.8,426.6c30-0.6,60.1-1.3,90.1-1.9 M840.5,434.3c32-1.2,64-2,96-2.3"/>
	<path class="st6" d="M810.2,337.2c-1.4,2.7-2.2,5.9-1.1,8.8c1.5,4,6.2,6,10.5,6.5c6.6,0.7,16.1-1.3,16.8-9.4c0.2-2-0.3-4-0.9-5.8
		c-0.7-2.2-1.6-4.3-3.2-5.9C825.2,324,814.2,329.5,810.2,337.2z M903,332.9c0.6,0.5,1.4,0.6,2.1,0.8c1.5,0.3,3.1,0.6,4.6,0.1
		c3.2-0.9,4.6-5.7,1.8-7.8c-1.4-1-3.2-1.2-4.9-0.9C903.7,325.7,899.5,330.1,903,332.9L903,332.9z M924,334.1c0,1.3,0.1,2.6,0.7,3.7
		c1.1,2.1,3.5,3.1,5.9,3.4c4.4,0.7,9.4-0.9,11.5-4.7c2.2-4.1,0.5-8.3-2.3-11.5c-1-1.1-2.1-2.3-3.5-2.6c-1.5-0.4-3,0.1-4.4,0.7
		C926.7,324.9,924.1,328.6,924,334.1z M952.3,342.5c0.1,1.2,0.3,2.3,0.7,3.4c1.1,2.3,3.4,3.8,5.9,4.1c2.5,0.3,5-0.6,7-2.1
		c3.6-2.7,3.5-8.5,1-11.9c-1.4-1.9-3.7-3.2-6.1-3.3C955.1,332.4,952,337.4,952.3,342.5L952.3,342.5z"/>
</g>
<g>
	<path class="st10" d="M1000.7,678.2c-1.7,7.6-5.3,13.5-13.4,15.2c-5.2,1.1-10.7,0.7-15.8,2.1c-10.5,2.9-17.6,12.5-26.8,18.5
		c-11.4,7.4-26.5,8.7-38.9,3.4c-5.6-2.4-10.7-5.7-16.3-8.2c-4-1.8-7.5-4.5-12.1-4.5c-12.7,0-24.7,8.3-36.2,12.7
		c-12.1,4.6-25.2,6.3-38.1,5c-5.2-0.5-10.4-1.6-15.1-3.9c-7.1-3.5-12.6-9.7-16-16.7s-4.9-15-5.3-22.8"/>
	<path class="st6" d="M765.6,505.2h235.9v173.1H765.6V505.2z"/>
	<path class="st1" d="M1002.7,679.5l-119.2,0.2l-59-0.1l-29.5-0.1c-9.8-0.1-19.7,0-29.5-0.1h-1.2v-1.2l0.1-10.8v-75.7l0.4-86.6v-0.6
		h30.1l29.5-0.1l59-0.1l118-0.3h1.2v1.2l-0.2,86.6L1002.7,679.5L1002.7,679.5z M1000.3,677.1l-0.2-85.4v-43.2l0.2-43.3l1.2,1.2
		l-235.9,0.1l1.3-1.3l0.3,86.6l-0.3,43.3l-0.2,21.6l-0.1,10.8l0.1,10.8l-1.1-1.1c4.9-0.1,9.8,0,14.7,0l14.7,0.1l29.5,0.1l14.7,0.1
		h14.7l29.5-0.2c9.8-0.1,19.7,0,29.5-0.1h29.5L1000.3,677.1L1000.3,677.1z"/>
	<path class="st6" d="M780,517.7h207v148H780V517.7z"/>
	<path class="st1" d="M988.2,667l-104.7,0.3h-25.9l-25.9-0.1l-25.9-0.1h-12.9c-4.3,0-8.6-0.1-12.9-0.1h-1.2v-1.1l0.1-9.3v-64.8
		l0.2-37l0.1-37v-0.6h26.5l25.9-0.1l51.8-0.1l103.5-0.3h1.2v1.2l-0.1,37l-0.1,37L988.2,667L988.2,667z M985.8,664.6l-0.2-72.8v-37
		l0.2-37l1.2,1.2H780l1.3-1.3l0.3,74l-0.3,37l-0.2,18.5l-0.1,9.3v9.3l-1.1-1.1c4.3,0,8.6-0.1,12.9,0l12.9,0.1l25.9,0.1l12.9,0.1h13
		l25.9-0.2c8.6-0.1,17.3,0,25.9-0.1h25.9L985.8,664.6L985.8,664.6z"/>
	<path class="st10" d="M809.3,527.4c-4.3,0-8.6,2.3-10.9,5.9c-1.4,2.2-2.1,4.8-2.4,7.3c-0.8,5.5,0.3,11.8,4.8,15.2
		c4.4,3.3,10.7,2.6,15.7,0.3c3-1.4,5.7-3.4,7.7-6.1c3.2-4.5,1.8-11.1-1.4-15.2C819.7,531.2,814.1,527.5,809.3,527.4L809.3,527.4z
		 M804.9,574.2c-2.4,0.2-4.8,0.7-6.9,2c-2.1,1.3-3.7,3.4-4,5.8c-0.4,3.2,1.7,6.3,4.5,8c2.8,1.6,6.2,1.9,9.4,1.8
		c5.8-0.3,20.5-4.1,14.3-12.9c-1.4-2.1-4.2-2.7-6.7-3.2C811.9,574.9,808.6,574.2,804.9,574.2L804.9,574.2z M799.7,601.5
		c-2.2,1.8-3.9,4.9-2.7,7.5c0.9,1.7,2.8,2.6,4.7,3c3.1,0.7,6.4,0.6,9.6,0.1c4.8-0.9,7.9-1.3,9.3-6.7c0.5-1.8,0.6-3.9-0.8-5.1
		C814.9,595.9,804.3,597.6,799.7,601.5z M797.5,630.2c-0.2,1.2-0.3,2.5,0.3,3.6c0.9,1.6,2.9,2.2,4.8,2.4c6.3,0.4,15.3-4,14.9-11.5
		c-0.1-2.4-2.7-4.1-5.1-4.1C805.6,620.6,799.1,622.2,797.5,630.2z M877.3,650.3c11.9,1.2,23.1-8.7,28.1-18.8
		c2.6-5.1,3.9-10.7,5.2-16.3c1.8-7.7,3.7-15.5,4-23.4c0.5-11.5-2.2-22.8-6-33.6c-3.2-9.3-6.1-19.6-16.3-23.3c-11-4-24.2-1.2-32.5,7
		c-5.1,5-8.4,11.7-11.3,18.3c-4.4,10-8.4,20.4-9.8,31.2s-0.1,22.3,5.4,31.8c4.5,7.6,11.4,13.4,18.1,19.1
		C866.9,645.9,871.6,649.7,877.3,650.3z M928.9,572.8c-0.1,2.8-0.1,5.7,1,8.3c1,2.7,3.1,4.8,4.3,7.4c1.2,2.6,1.6,5.7,3.6,7.8
		c2.3,2.5,6.1,2.9,9.5,2.6c5.5-0.5,10.9-2.5,14.9-6.3c4.3-4.1,6.6-9.9,8.2-15.6c1.9-6.6,3.1-13.5,2.2-20.3
		c-0.9-7-6.1-19.3-13.4-21.8c-3.7-1.3-7.7-0.8-11.4,0.6C931.7,541.2,929.3,557.9,928.9,572.8L928.9,572.8z M928.9,631.3
		c-0.1,4.4,0.4,8.9,2.1,12.9c1.7,4,4.8,7.6,8.8,9.4c4.7,2.1,10.2,1.4,15-0.4c5-1.9,9.6-5.2,12-9.9c5.6-10.9-1.4-21.8-8.4-29.9
		c-1.1-1.3-2.3-2.6-3.8-3.5c-1.9-1.1-4.1-1.3-6.3-1.5C934.8,607.1,929.1,619.4,928.9,631.3L928.9,631.3z"/>
</g>
<g>
	<path class="st12" d="M1467.1,128.3l-17.4,0.2c-5.8,0.1-11.6,0.1-17.4,0.1c-2.9,0-5.8,0-8.7-0.1l-8.7-0.1c-1.5,0-2.9,0-4.4-0.1
		c-1.4-0.1-2.9-0.1-4.4-0.1h-8.7c-0.6,0-1-0.5-1-1v-7c0-2.3,0.1-4.7,0.1-7c0.1-4.7,0.2-9.3,0.2-14c0-0.3,0.3-0.6,0.6-0.6h8.8
		l8.7-0.1l17.4-0.2l17.4-0.2l4.4-0.1h4.4c2.9,0,5.8,0.1,8.7,0.1c0.6,0,1,0.5,1,1v7l0.1,7l0.1,14
		C1468.3,127.8,1467.8,128.3,1467.1,128.3L1467.1,128.3z M1465.9,125.9l-0.1-12.8l-0.1-7v-7l1.4,1.4c-2.9,0-5.8-0.1-8.7-0.2
		l-4.4-0.1h-56.6l1.3-1.3c0.1,4.7,0.2,9.3,0.2,14v7l-0.1,3.5c0,1.2-0.1,2.3-0.1,3.5l-1.4-1.4l8.7,0.3c1.4,0.1,2.9,0.1,4.4,0h4.4
		l8.7,0.2l4.4,0.1h4.4l4.4-0.1c1.5,0,2.9-0.1,4.4-0.1H1465.9L1465.9,125.9z M1344.2,68.2l24.6-0.2l12.3-0.1h12.3l12.3,0.1l6.1,0.1
		h3.1l3.1,0.1c2,0.1,4.1,0.1,6.1,0.1h18.4c0.5,0,1,0.4,1,1c0,2.3-0.1,4.7-0.1,7l-0.1,7l-0.2,14c0,0.3-0.3,0.6-0.6,0.6h-12.2L1418,98
		l-24.6,0.2l-24.6,0.2c-4.1,0-8.2,0-12.3-0.1l-12.3-0.1c-0.5,0-1-0.4-1-1l-0.2-27.9C1343,68.8,1343.6,68.2,1344.2,68.2L1344.2,68.2z
		 M1345.5,70.6l0.2,26.7l-1.4-1.4h12.3l12.3,0.2h73.7l-1.3,1.3l-0.2-14l-0.1-7c0-2.3-0.1-4.7,0-7l1.5,1.5l-12.3-0.2l-6.1-0.2
		l-3.1-0.1h-3.1l-3.1,0.1l-3.1-0.1l-6.1-0.1l-12.3-0.2c-2,0-4.1,0.1-6.1,0.1l-6.1,0.1c-2,0.1-4.1,0.1-6.1,0.1h-6.1L1345.5,70.6
		L1345.5,70.6z"/>
	<path class="st12" d="M1445.7,68.2l24.6-0.2l12.3-0.1h12.3l12.3,0.1l6.1,0.1h3.1l3.1,0.1c2,0.1,4.1,0.1,6.1,0.1h18.4
		c0.5,0,1,0.4,1,1c0,2.3-0.1,4.7-0.1,7l-0.1,7l-0.2,14c0,0.3-0.3,0.6-0.6,0.6h-12.2l-12.3,0.1l-24.6,0.2l-24.6,0.2
		c-4.1,0-8.2,0-12.3-0.1l-12.3-0.1c-0.5,0-1-0.4-1-1l-0.2-27.9C1444.5,68.8,1445.1,68.2,1445.7,68.2L1445.7,68.2z M1446.9,70.6
		l0.2,26.7l-1.4-1.4h12.3l12.3,0.2h73.7l-1.3,1.3l-0.2-14l-0.1-7c0-2.3-0.1-4.7,0-7l1.5,1.5l-12.3-0.2l-6.1-0.2l-3.1-0.1h-3.1
		l-3.1,0.1l-3.1-0.1l-6.1-0.1l-12.3-0.2c-2,0-4.1,0.1-6.1,0.1l-6.1,0.1c-2,0.1-4.1,0.1-6.1,0.1h-6.1L1446.9,70.6L1446.9,70.6z"/>
	<path class="st12" d="M1393.4,38.5l24.6-0.2l12.3-0.1h12.3l12.3,0.1l6.1,0.1h3.1l3.1,0.1c2,0.1,4.1,0.1,6.1,0.1h18.4
		c0.5,0,1,0.4,1,1c0,2.3-0.1,4.7-0.1,7l-0.1,7l-0.2,14c0,0.3-0.3,0.6-0.6,0.6h-12.2l-12.3,0.1l-24.6,0.2l-24.6,0.2
		c-4.1,0-8.2,0-12.3-0.1l-12.3-0.1c-0.5,0-1-0.4-1-1l-0.2-27.9C1392.2,39,1392.7,38.5,1393.4,38.5L1393.4,38.5z M1394.6,40.9
		l0.2,26.7l-1.4-1.4h12.3l12.3,0.2h73.7l-1.3,1.3l-0.2-14l-0.1-7c0-2.3-0.1-4.7,0-7l1.5,1.5l-12.3-0.2l-6.1-0.2l-3.1-0.1h-3.1
		l-3.1,0.1l-3.1-0.1l-6.1-0.1l-12.3-0.2c-2,0-4.1,0.1-6.1,0.1l-6.1,0.1c-2,0.1-4.1,0.1-6.1,0.1h-6.1L1394.6,40.9L1394.6,40.9z"/>
</g>
<g>
	<path class="st13" d="M1185.9,779.5l-23.5,0.2l-11.8,0.1h-11.8l-11.8-0.1l-5.9-0.1c-2,0-3.9,0-5.9-0.1s-3.9-0.1-5.9-0.1h-17.7
		c-0.5,0-1-0.4-1-1c0-2.3,0-4.7,0.1-7l0.1-7l0.2-14c0-0.3,0.3-0.6,0.6-0.6h11.8l11.8-0.1l23.5-0.2l23.5-0.2h5.9l5.9,0.1
		c3.9,0.1,7.8,0.1,11.8,0.1c0.5,0,1,0.4,1,1v7l0.1,7l0.1,14C1187.1,779,1186.6,779.5,1185.9,779.5L1185.9,779.5z M1184.7,777.1
		l-0.2-26.7l1.4,1.4c-3.9,0-7.8,0.1-11.8,0l-11.8-0.2h-70.6l1.3-1.3l0.2,14l0.1,7c0,2.3,0.1,4.7,0,7l-1.5-1.5
		c3.9,0,7.8,0.2,11.8,0.3l5.9,0.2c2,0.1,3.9,0.1,5.9,0s3.9,0,5.9,0l5.9,0.1l11.8,0.2c3.9,0,7.8-0.2,11.8-0.2c2-0.1,3.9,0,5.9-0.1
		h5.9L1184.7,777.1L1184.7,777.1z"/>
	<path class="st13" d="M1136.1,719.5l24.6-0.2l12.3-0.1h12.3l12.3,0.1l6.1,0.1h3.1l3.1,0.1c2,0.1,4.1,0.1,6.1,0.1h18.4
		c0.5,0,1,0.4,1,1c0,2.3-0.1,4.7-0.1,7l-0.1,7l-0.2,14c0,0.3-0.3,0.6-0.6,0.6h-12.2l-12.3,0.1l-24.6,0.2l-24.6,0.2
		c-4.1,0-8.2,0-12.3-0.1l-12.3-0.1c-0.5,0-1-0.4-1-1l-0.2-27.9C1134.9,720,1135.4,719.5,1136.1,719.5L1136.1,719.5z M1137.3,721.9
		l0.2,26.7l-1.4-1.4h12.3l12.3,0.2h73.7l-1.3,1.3l-0.2-14l-0.1-7c0-2.3-0.1-4.7,0-7l1.5,1.5L1222,722l-6.1-0.2l-3.1-0.1h-3.1
		l-3.1,0.1l-3.1-0.1l-6.1-0.1l-12.3-0.2c-2,0-4.1,0.1-6.1,0.1l-6.1,0.1c-2,0.1-4.1,0.1-6.1,0.1h-6.1L1137.3,721.9L1137.3,721.9z"/>
	<path class="st13" d="M1087.7,689.7l24.6-0.2l12.3-0.1h12.3l12.3,0.1l6.1,0.1h3.1l3.1,0.1c2,0.1,4.1,0.1,6.1,0.1h18.4
		c0.5,0,1,0.4,1,1c0,2.3-0.1,4.7-0.1,7l-0.1,7l-0.2,14c0,0.3-0.3,0.6-0.6,0.6h-12.2l-12.3,0.1l-24.6,0.2l-24.6,0.2
		c-4.1,0-8.2,0-12.3-0.1l-12.3-0.1c-0.5,0-1-0.4-1-1l-0.2-27.9C1086.5,690.2,1087,689.7,1087.7,689.7L1087.7,689.7z M1088.9,692.1
		l0.2,26.7l-1.4-1.4h12.3l12.3,0.2h73.7l-1.3,1.3l-0.2-14l-0.1-7c0-2.3-0.1-4.7,0-7l1.5,1.5l-12.3-0.2l-6.1-0.2l-3.1-0.1h-3.1
		l-3.1,0.1l-3.1-0.1l-6.1-0.1l-12.3-0.2c-2,0-4.1,0.1-6.1,0.1l-6.1,0.1c-2,0.1-4.1,0.1-6.1,0.1h-6.1L1088.9,692.1L1088.9,692.1z"/>
</g>
<g>
	<path class="st0" d="M558.5,145.5l23.5-0.2l11.8-0.1h11.8l11.8,0.1l5.9,0.1c2,0,3.9,0,5.9,0.1s3.9,0.1,5.9,0.1h17.7
		c0.5,0,1,0.4,1,1c0,2.3,0,4.7-0.1,7l-0.1,7l-0.2,14c0,0.3-0.3,0.6-0.6,0.6H641l-11.8,0.1l-23.5,0.2l-23.5,0.2h-5.9l-5.9-0.1
		c-3.9-0.1-7.8-0.1-11.8-0.1c-0.5,0-1-0.4-1-1v-7l-0.1-7l-0.1-14C557.3,146,557.8,145.5,558.5,145.5L558.5,145.5z M559.7,147.9
		l0.2,26.7l-1.4-1.4c3.9,0,7.8-0.1,11.8,0l11.8,0.2h70.6l-1.3,1.3l-0.2-14l-0.1-7c0-2.3-0.1-4.7,0-7l1.5,1.5
		c-3.9,0-7.8-0.2-11.8-0.3l-5.9-0.2c-2-0.1-3.9-0.1-5.9,0s-3.9,0-5.9,0l-5.9-0.1l-11.8-0.2c-3.9,0-7.8,0.2-11.8,0.2
		c-2,0.1-3.9,0-5.9,0.1h-5.9L559.7,147.9L559.7,147.9z"/>
	<path class="st0" d="M608.4,205.6l-24.6,0.2l-12.3,0.1h-12.3l-12.3-0.1l-6.1-0.1h-3.1l-3.1-0.1c-2-0.1-4.1-0.1-6.1-0.1h-18.4
		c-0.5,0-1-0.4-1-1c0-2.3,0.1-4.7,0.1-7l0.1-7l0.2-14c0-0.3,0.3-0.6,0.6-0.6h12.2l12.3-0.1l24.6-0.2l24.6-0.2c4.1,0,8.2,0,12.3,0.1
		l12.3,0.1c0.5,0,1,0.4,1,1l0.2,27.9C609.6,205,609.1,205.6,608.4,205.6L608.4,205.6z M607.2,203.2l-0.2-26.7l1.4,1.4h-12.3
		l-12.3-0.2h-73.7l1.3-1.3l0.2,14l0.1,7c0,2.3,0.1,4.7,0,7l-1.5-1.5l12.3,0.2l6.1,0.2l3.1,0.1h3.1l3.1-0.1l3.1,0.1l6.1,0.1l12.3,0.2
		c2,0,4.1-0.1,6.1-0.1l6.1-0.1c2-0.1,4.1-0.1,6.1-0.1h6.1L607.2,203.2L607.2,203.2z"/>
	<path class="st0" d="M656.8,235.3l-24.6,0.2l-12.3,0.1h-12.3l-12.3-0.1l-6.1-0.1h-3.1l-3.1-0.1c-2-0.1-4.1-0.1-6.1-0.1h-18.4
		c-0.5,0-1-0.4-1-1c0-2.3,0.1-4.7,0.1-7l0.1-7l0.2-14c0-0.3,0.3-0.6,0.6-0.6h12.2l12.3-0.1l24.6-0.2l24.6-0.2c4.1,0,8.2,0,12.3,0.1
		l12.3,0.1c0.5,0,1,0.4,1,1l0.2,27.9C658,234.8,657.5,235.3,656.8,235.3L656.8,235.3z M655.6,233l-0.2-26.7l1.4,1.4h-12.3l-12.3-0.2
		h-73.7l1.3-1.3l0.2,14l0.1,7c0,2.3,0.1,4.7,0,7l-1.5-1.5l12.3,0.2l6.1,0.2l3.1,0.1h3.1l3.1-0.1l3.1,0.1l6.1,0.1l12.3,0.2
		c2,0,4.1-0.1,6.1-0.1l6.1-0.1c2-0.1,4.1-0.1,6.1-0.1h6.1L655.6,233L655.6,233z"/>
</g>
<g>
	<path class="st12" d="M1094.7,578.3h76.6v50.3h-76.6V578.3z"/>
	<path class="st4" d="M1105.1,588.3c0,0,0.9,0,2.5-0.1h1.3c0.5,0,1,0,1.5-0.1c0.6-0.1,1.1-0.1,1.8-0.2c0.6,0,1.3-0.1,1.9-0.1
		c1.4,0,2.8,0.1,4.4,0.1s3.2,0.1,4.9,0.1c0.8,0,1.7,0.1,2.6,0.1c0.4,0,0.9,0.1,1.3,0.1h1.3c1.8,0,3.6,0.2,5.4,0.1
		c1.8,0,3.6,0.2,5.4,0c0.9-0.1,1.8-0.1,2.6-0.1h2.6c1.7,0,3.3-0.2,4.9,0c1.5,0.1,3,0.1,4.4,0s2.6,0.1,3.7,0.1s2.1-0.1,2.8-0.1
		c1.6-0.1,2.5-0.2,2.5-0.2l0.1,1.6c0,0-0.9,0-2.5,0.1c-0.8,0-1.8,0.1-2.9,0.1c-0.6,0-1.1,0.1-1.8,0.2c-0.6,0.1-1.3,0-1.9,0
		c-1.4,0-2.8-0.1-4.4-0.1s-3.2-0.3-4.9-0.1c-1.7,0-3.4,0.3-5.2,0c-1.8-0.3-3.6,0.2-5.4,0.1c-1.8-0.3-3.6,0-5.4-0.2
		c-0.4,0-0.9-0.1-1.3-0.1s-0.9,0.1-1.3,0.1c-0.9,0.1-1.7-0.1-2.6-0.2c-0.8-0.2-1.7,0-2.5-0.1s-1.6-0.2-2.4-0.2c-1.6,0-3,0.1-4.4,0.2
		c-0.7,0-1.3,0.1-1.9,0.1h-1.7c-1.1-0.1-2,0.2-2.8,0.2c-1.6,0.1-2.5,0.1-2.5,0.1L1105.1,588.3L1105.1,588.3z M1105.4,596.1h3.4
		c0.4,0.1,0.9,0,1.4,0c0.5-0.1,1-0.1,1.6-0.2c0.6,0,1.1-0.1,1.8-0.1c1.2,0,2.6,0.1,4,0.1s2.9,0.1,4.4,0.1c0.8,0,1.5,0.1,2.3,0.1
		c0.4,0,0.8,0.1,1.2,0.1h1.2c1.6,0,3.2,0.2,4.9,0.1c1.6,0,3.3,0.2,4.9,0c0.8-0.1,1.6-0.1,2.4-0.1h2.3c1.5,0,3-0.2,4.4,0
		c1.4,0.1,2.7,0.1,3.9,0c1.2-0.1,2.3,0.1,3.3,0.1s1.9-0.1,2.6-0.1c1.4-0.1,2.2-0.1,2.2-0.1v1.6c0,0-0.8,0-2.2,0.1
		c-0.7,0-1.6,0-2.6,0.1c-0.5,0-1,0.1-1.6,0.2h-1.8c-1.2,0-2.6-0.1-4-0.1s-2.9-0.3-4.4-0.1c-1.5,0-3.1,0.3-4.7,0s-3.2,0.2-4.9,0.2
		c-1.6-0.3-3.3,0-4.9-0.1c-0.4,0-0.8,0-1.2-0.1c-0.4,0-0.8,0.1-1.2,0.1c-0.8,0.1-1.6-0.1-2.3-0.1c-0.8-0.2-1.5,0-2.2-0.1
		s-1.5-0.2-2.2-0.2c-1.4-0.1-2.7,0.1-3.9,0.2c-0.6,0-1.2,0.1-1.8,0.1c-0.6,0-1.1,0-1.6-0.1h-1.4c-0.4,0.1-0.8,0.1-1.2,0.1
		c-1.4,0.1-2.2,0.1-2.2,0.1L1105.4,596.1L1105.4,596.1z M1105.6,603.7c0,0,0.8,0,2.3-0.1h1.2c0.5,0,0.9,0,1.5-0.1
		c0.5-0.1,1.1-0.2,1.6-0.2c0.6,0,1.2-0.1,1.8-0.1h4.1c1.5,0,3,0,4.6,0.1c0.8,0,1.6,0.1,2.4,0.1c0.4,0,0.8,0.1,1.2,0.1h1.2
		c1.7,0,3.4,0.2,5.1,0.1c1.7,0,3.4,0.2,5.1,0c0.8-0.1,1.7-0.1,2.5-0.1h2.4c1.6,0,3.1-0.1,4.6,0s2.8,0.1,4.1,0.1h1.8
		c0.6,0.1,1.1,0.1,1.6,0.1h2.7c1.5,0,2.3-0.1,2.3-0.1v1.6h-5c-0.5,0-1.1,0.1-1.7,0.1h-1.8c-1.3-0.1-2.7-0.2-4.1-0.2
		c-1.5,0-3-0.3-4.6-0.2c-1.6,0-3.2,0.3-4.9,0c-1.7-0.3-3.4,0.2-5.1,0.1c-1.7-0.3-3.4,0-5.1-0.1c-0.4,0-0.8,0-1.2-0.1
		c-0.4,0-0.8,0.1-1.2,0.1c-0.8,0.1-1.6-0.1-2.4-0.1c-0.8-0.2-1.6,0-2.3-0.1c-0.8-0.1-1.5-0.2-2.2-0.2c-1.5,0-2.8,0.1-4.1,0.2
		c-0.6,0.1-1.2,0.1-1.8,0.1h-1.6c-0.5,0-1,0-1.4,0.1s-0.9,0.1-1.2,0.1c-1.5,0.1-2.3,0.2-2.3,0.2L1105.6,603.7L1105.6,603.7z
		 M1139.3,614.3h1.2c0.2,0.1,0.3,0,0.5,0c0.4-0.2,0.8-0.3,1.2-0.3h1.4c0.5,0,1,0,1.6,0.1c0.3,0,0.6,0,0.9,0.1s0.6,0.1,0.9,0h0.9
		c0.3,0.1,0.6,0,1,0.1c0.5,0.1,1.1,0.3,1.7,0.2c0.3-0.1,0.6-0.1,0.9-0.1h0.8c0.6,0,1.1-0.2,1.6,0c0.5,0.1,1,0.1,1.4,0.1h0.6
		c0.2,0.1,0.4,0.1,0.6,0.1c0.4,0,0.7,0,0.9-0.1c0.5-0.1,0.8-0.1,0.8-0.1v1.6h-1.7c-0.2,0-0.4,0.1-0.6,0.1h-0.6
		c-0.4-0.1-0.9-0.2-1.4-0.2s-1-0.3-1.6-0.2c-0.6,0-1.2,0.3-1.7,0c-0.6-0.4-1.2,0.2-1.9,0c0,0-0.1-0.1-0.2-0.1h-1.7
		c-0.1,0-0.3,0.1-0.4,0.1c-0.3,0.1-0.6,0-0.9-0.1c-0.1,0-0.3-0.1-0.4-0.1h-0.4c-0.3,0-0.5-0.2-0.8-0.2c-0.5,0-1,0.1-1.4,0.2
		c-0.4,0.1-0.8,0.1-1.2,0c-0.2,0-0.4,0-0.5,0.1c-0.2,0.1-0.3,0.1-0.4,0.1c-0.5,0.1-0.8,0.1-0.8,0.1L1139.3,614.3L1139.3,614.3z"/>
</g>
<g>
	<path class="st14" d="M1623,644.9h79.8v52.2H1623V644.9z"/>
	<path class="st6" d="M1633.3,656.6l3.6-0.1c1.2,0.1,2.4-0.2,3.6-0.3c2.4-0.2,4.8-0.1,7.2-0.2c1.2,0,2.4-0.1,3.6,0h3.6
		c1.2,0.1,2.4,0,3.6-0.1h3.6c1.2-0.1,2.4-0.1,3.6-0.1c1.2-0.1,2.4,0,3.6-0.3l3.6-0.3c1.2-0.1,2.4-0.1,3.6-0.2c0.6,0,1.2-0.1,1.8-0.1
		h1.8c1.2,0,2.4-0.1,3.6-0.1c1.2-0.1,2.4-0.1,3.6,0c1.2,0,2.4-0.1,3.6-0.2l1.8-0.1l-1.3,1.4l-1.6,1.6l-1.1-1.1l1.7-1.6l0.6,1.4
		c-1.2,0.1-2.4,0.1-3.6,0.2c-0.6,0.1-1.2,0.2-1.8,0.2h-7.2l-1.8-0.1c-1.2,0-2.4,0.1-3.6,0.2c-1.2,0.1-2.4,0.2-3.6,0.2
		c-1.2-0.3-2.4,0-3.6,0.1c-1.2,0.2-2.4,0.3-3.6,0.2c-1.2,0-2.4,0.1-3.6,0.1s-2.4-0.1-3.6,0.2c-1.2,0.1-2.4-0.1-3.6-0.1
		c-1.2,0.1-2.4,0-3.6-0.1h-1.8c-0.6,0-1.2,0.1-1.8,0.1l-3.6,0.3c-1.2,0-2.4-0.1-3.6,0.1l-3.6,0.2L1633.3,656.6L1633.3,656.6z
		 M1634.5,665.3h2.2c0.7-0.1,1.5,0.1,2.5,0c0.5-0.1,1-0.1,1.5-0.2c0.5,0,1.1-0.1,1.7-0.1h3.8c1.4,0,2.8,0,4.3,0.1
		c0.7,0,1.5,0,2.3,0.1s1.5,0.1,2.3,0c1.6,0,3.2,0.1,4.7,0c1.6-0.1,3.2,0.1,4.7-0.1c0.8-0.1,1.6-0.1,2.3-0.2c0.8,0,1.5-0.1,2.3-0.1
		c1.5,0,2.9-0.2,4.3-0.1s2.7,0,3.8,0c0.6,0,1.2-0.1,1.7,0c0.5,0,1.1,0.1,1.5,0.1c1,0,1.8-0.1,2.5-0.1c1.4-0.1,2.2-0.1,2.2-0.1v1.6
		c0,0-0.8,0-2.2,0.1c-0.7,0-1.5,0.1-2.5,0.1c-0.5,0-1,0.1-1.5,0.2s-1.1,0-1.7,0c-1.2,0-2.5-0.1-3.8-0.1c-1.4,0.1-2.8-0.2-4.3-0.1
		s-3,0.4-4.6,0.2c-1.6-0.3-3.1,0.3-4.7,0.3c-1.6-0.2-3.2,0.1-4.7,0h-1.2c-0.4,0-0.8,0.1-1.2,0.1c-0.8,0.1-1.5,0-2.3-0.1
		c-0.4,0-0.7-0.1-1.1-0.1h-1.1c-0.7-0.1-1.4-0.2-2.1-0.2c-1.4,0-2.7,0.1-3.8,0.2c-0.6,0.1-1.2,0.1-1.7,0.1s-1.1,0-1.5-0.1
		c-0.5,0-0.9,0-1.4,0.1c-0.4,0.1-0.8,0.1-1.1,0.1c-1.4,0.1-2.2,0.1-2.2,0.1L1634.5,665.3L1634.5,665.3z M1635.7,673.9
		c0,0,0.8,0,2.2-0.1c0.7-0.1,1.6,0.1,2.6-0.1c0.5-0.1,1-0.2,1.6-0.2c0.6-0.1,1.1-0.1,1.7-0.1h8.3c0.8,0,1.5,0,2.3,0.1h2.4
		c1.6-0.1,3.2,0.1,4.9,0c1.6-0.1,3.3,0.1,4.9-0.1c0.8-0.1,1.6-0.1,2.4-0.2c0.8,0,1.6-0.1,2.3-0.1c1.5,0,3-0.2,4.4-0.1
		c1.4,0.1,2.7,0.1,3.9,0h1.8c0.6,0.1,1.1,0.1,1.6,0.1c1,0,1.9,0,2.6-0.1c1.4,0,2.2-0.1,2.2-0.1v1.6h-4.8c-0.5,0-1,0.1-1.6,0.1h-1.7
		c-1.2,0-2.5-0.1-3.9-0.1s-2.9-0.3-4.4-0.1c-1.5,0.1-3.1,0.3-4.7,0.1c-1.6-0.3-3.2,0.3-4.8,0.3c-1.6-0.2-3.2,0.1-4.8,0h-1.2
		c-0.4,0-0.8,0.1-1.2,0.1c-0.8,0.1-1.6,0-2.3-0.1c-0.8-0.1-1.5,0-2.2-0.1c-0.7,0-1.5-0.1-2.2-0.1c-1.4,0-2.7,0.2-3.9,0.3
		c-0.6,0.1-1.2,0.1-1.7,0.1h-1.6c-0.5,0-1,0-1.4,0.1s-0.8,0.1-1.2,0.1c-1.4,0.1-2.2,0.2-2.2,0.2L1635.7,673.9L1635.7,673.9z
		 M1672.7,684.1c0,0,0.3-0.1,0.8-0.2c0.1,0,0.3-0.1,0.4,0c0.2,0,0.3,0,0.5-0.1s0.3-0.2,0.5-0.3s0.4-0.1,0.6-0.1
		c0.4-0.1,0.9-0.1,1.4-0.1c0.5-0.1,1-0.1,1.6,0c0.3,0,0.5,0,0.8,0.1h0.8c0.6-0.1,1.1,0.1,1.7,0c0.6,0,1.1,0.1,1.7,0
		c0.3-0.1,0.6-0.1,0.8-0.1h0.8c0.5,0,1.1-0.1,1.6,0c0.5,0.2,1,0.1,1.4,0.2c0.2,0,0.4,0,0.6,0.1s0.4,0.2,0.5,0.2c0.3,0,0.7,0,0.9,0.1
		h0.8l-0.3,1.6c0,0-0.3,0-0.8-0.1c-0.2,0-0.5-0.1-0.9-0.1c-0.2,0-0.4,0-0.6,0.1c-0.2,0-0.4,0-0.6-0.1c-0.4-0.1-0.9-0.2-1.3-0.3
		c-0.5,0-1-0.3-1.5-0.2c-0.5,0-1.1,0.3-1.6,0c-0.1-0.1-0.3-0.1-0.4-0.1s-0.3,0.1-0.4,0.1c-0.3,0.1-0.6,0.2-0.8,0.2
		c-0.6-0.2-1.1,0-1.7,0h-0.4c-0.1,0-0.3,0.1-0.4,0.1c-0.3,0.1-0.5,0-0.8-0.1c-0.1,0-0.3-0.1-0.4,0h-0.4c-0.3,0-0.5-0.2-0.8-0.1
		c-0.5,0-0.9,0.2-1.3,0.3c-0.4,0.2-0.8,0.2-1.1,0.2c-0.2,0-0.3,0-0.5,0.1c-0.1,0.1-0.3,0.1-0.4,0.1c-0.5,0.2-0.8,0.2-0.8,0.2
		L1672.7,684.1L1672.7,684.1z"/>
</g>
<g>
	<path class="st14" d="M782.2,653.9h70v45.8h-70V653.9z"/>
	<path class="st6" d="M791.3,664.1c1,0,2.1-0.1,3.1-0.1c1.1,0.1,2.1-0.1,3.1-0.3c2.1-0.2,4.2-0.1,6.3-0.2c1,0,2.1-0.1,3.1,0h3.1
		c1.1,0.1,2.1,0,3.1,0h3.1c1-0.1,2.1-0.1,3.1-0.1s2.1,0,3.1-0.2c1-0.1,2.1-0.2,3.1-0.2c1-0.1,2.1-0.1,3.1-0.2c0.5,0,1-0.1,1.6-0.1
		h1.6c1,0,2.1-0.1,3.1-0.1c0.5,0,1-0.1,1.6-0.1l1.6,0.1c1,0,2.1-0.1,3.1-0.2l1.8-0.1l-1.3,1.4l-1.4,1.4l-1.1-1.1l1.4-1.4l0.6,1.4
		c-1,0.1-2.1,0.1-3.1,0.2c-0.5,0.1-1,0.1-1.6,0.2h-6.3l-1.6-0.1c-1,0-2.1,0.1-3.1,0.2s-2.1,0.2-3.1,0.2c-1.1-0.3-2.1-0.1-3.1,0.1
		s-2.1,0.3-3.1,0.2c-1,0-2.1,0.1-3.1,0.1s-2.1-0.1-3.1,0.2c-1,0.1-2.1-0.1-3.1-0.1c-1,0.1-2.1,0-3.1-0.1c-2.1-0.1-4.2,0.4-6.3,0.4
		c-1,0-2.1-0.1-3.1,0.1c-1,0.1-2.1,0.1-3.1,0.2L791.3,664.1L791.3,664.1z M792.3,671.7h1.9c0.6-0.1,1.4,0.1,2.2,0
		c0.8-0.2,1.8-0.3,2.8-0.3h3.4c1.2,0,2.5,0,3.8,0.1c0.7,0,1.3,0,2,0.1s1.4,0.1,2,0c1.4,0,2.8,0.1,4.2,0s2.8,0.1,4.2-0.1
		c0.7-0.1,1.4-0.1,2-0.2c0.7,0,1.3-0.1,2-0.1c1.3,0,2.6-0.2,3.8-0.1c1.2,0.1,2.3,0,3.4,0c0.5,0,1-0.1,1.5,0c0.5,0,0.9,0.1,1.4,0.1
		c0.8,0,1.6-0.1,2.2-0.1c1.2-0.1,1.9-0.1,1.9-0.1v1.6c0,0-0.7,0-1.9,0.1c-0.6,0-1.3,0-2.2,0.1c-0.4,0-0.9,0.1-1.3,0.2
		c-0.5,0.1-1,0-1.5,0c-1,0-2.2-0.1-3.4-0.1s-2.5-0.2-3.8-0.1c-1.3,0.1-2.6,0.4-4,0.2c-1.4-0.3-2.8,0.3-4.1,0.3
		c-1.4-0.2-2.8,0.1-4.2,0h-1c-0.3,0-0.7,0.1-1,0.1c-0.7,0.1-1.3,0-2-0.1c-0.3,0-0.7-0.1-1-0.1h-1c-0.6,0-1.2-0.2-1.8-0.2
		c-1.2,0-2.3,0.1-3.4,0.2c-0.5,0.1-1,0.1-1.5,0.1s-0.9,0-1.4-0.1c-0.8-0.1-1.6,0.2-2.2,0.2c-1.2,0.1-1.9,0.1-1.9,0.1L792.3,671.7
		L792.3,671.7z M793.4,679.2c0,0,0.7,0,2-0.1c0.6-0.1,1.4,0.1,2.2-0.1c0.4-0.1,0.9-0.2,1.4-0.2c0.5-0.1,1-0.1,1.5-0.1h7.4
		c0.7,0,1.3,0,2,0.1c0.3,0,0.7,0,1,0.1h1c1.4,0,2.8,0.1,4.3,0c1.4-0.1,2.9,0.1,4.3-0.1c0.7-0.1,1.4-0.1,2.1-0.2c0.7,0,1.4-0.1,2-0.1
		c1.3,0,2.6-0.2,3.9-0.1c1.2,0.1,2.4,0.1,3.5,0h1.5c0.5,0.1,0.9,0.1,1.4,0.1c0.9,0,1.6,0,2.3-0.1c1.2,0,2-0.1,2-0.1v1.6H835
		c-0.4,0-0.9,0.1-1.4,0.1h-1.5c-1.1,0-2.2-0.1-3.4-0.1s-2.5-0.3-3.8-0.1c-1.3,0-2.7,0.3-4.1,0.1c-1.4-0.3-2.8,0.3-4.2,0.3
		c-1.4-0.2-2.8,0.1-4.2,0h-1c-0.3,0-0.7,0.1-1,0.1c-0.7,0.1-1.4,0-2-0.1c-0.7-0.1-1.3,0-2-0.1c-0.6,0-1.3-0.2-1.9-0.2
		c-1.2,0-2.4,0.2-3.4,0.3c-0.5,0.1-1,0.1-1.5,0.1h-1.4c-0.4,0-0.8,0-1.2,0.1s-0.7,0.1-1,0.1c-1.2,0.1-2,0.2-2,0.2L793.4,679.2
		L793.4,679.2z M825.8,688.1c0,0,0.2-0.1,0.7-0.1c0.1,0,0.2-0.1,0.4,0c0.1,0,0.3,0,0.4-0.1c0.1-0.1,0.3-0.2,0.5-0.3s0.3-0.1,0.5-0.1
		c0.4-0.1,0.8-0.1,1.2-0.1s0.9-0.1,1.4,0c0.2,0,0.5,0,0.7,0.1h0.8c0.5-0.1,1,0.1,1.5,0c0.5,0,1,0.1,1.5,0c0.2-0.1,0.5-0.1,0.7-0.1
		h0.7c0.5,0,0.9-0.1,1.4,0c0.4,0.2,0.8,0.1,1.2,0.1c0.2,0,0.4,0,0.5,0.1c0.2,0.1,0.3,0.2,0.5,0.2h1.5l-0.3,1.6c0,0-0.2,0-0.7-0.1
		c-0.2,0-0.5-0.1-0.8-0.1c-0.1,0-0.3,0-0.5,0.1c-0.2,0-0.3,0-0.5-0.1c-0.4-0.1-0.7-0.2-1.2-0.2c-0.4,0-0.8-0.3-1.3-0.2
		c-0.5,0-0.9,0.3-1.4,0c-0.1-0.1-0.2-0.1-0.4-0.1c-0.1,0-0.2,0.1-0.4,0.1c-0.2,0.1-0.5,0.2-0.7,0.2c-0.5-0.2-1,0-1.5,0h-0.4
		c-0.1,0-0.2,0.1-0.3,0.1c-0.2,0.1-0.5,0-0.7-0.1c-0.1,0-0.2-0.1-0.3,0h-0.3c-0.2,0-0.5-0.2-0.7-0.1c-0.4,0-0.8,0.2-1.2,0.3
		c-0.3,0.2-0.7,0.2-1,0.1c-0.2,0-0.3,0-0.4,0.1c-0.1,0.1-0.2,0.1-0.3,0.1c-0.4,0.1-0.7,0.2-0.7,0.2L825.8,688.1L825.8,688.1z"/>
</g>
<g>
	<path class="st14" d="M782.2,442.7h70v45.8h-70V442.7z"/>
	<path class="st6" d="M791.3,452.9c1,0,2.1-0.1,3.1-0.1c1.1,0.1,2.1-0.1,3.1-0.3c2.1-0.2,4.2-0.1,6.3-0.2c1,0,2.1-0.1,3.1,0h3.1
		c1.1,0.1,2.1,0,3.1,0h3.1c1-0.1,2.1-0.1,3.1-0.1s2.1,0,3.1-0.2c1-0.1,2.1-0.2,3.1-0.2c1-0.1,2.1-0.1,3.1-0.2c0.5,0,1-0.1,1.6-0.1
		h1.6c1,0,2.1-0.1,3.1-0.1c0.5,0,1-0.1,1.6-0.1l1.6,0.1c1,0,2.1-0.1,3.1-0.2l1.8-0.1l-1.3,1.4l-1.4,1.4l-1.1-1.1l1.4-1.4l0.6,1.4
		c-1,0.1-2.1,0.1-3.1,0.2c-0.5,0.1-1,0.1-1.6,0.2h-6.3L829,453c-1,0-2.1,0.1-3.1,0.2s-2.1,0.2-3.1,0.2c-1.1-0.3-2.1-0.1-3.1,0.1
		s-2.1,0.3-3.1,0.2c-1,0-2.1,0.1-3.1,0.1s-2.1-0.1-3.1,0.2c-1,0.1-2.1-0.1-3.1-0.1c-1,0.1-2.1,0-3.1-0.1c-2.1-0.1-4.2,0.4-6.3,0.4
		c-1,0-2.1-0.1-3.1,0.1c-1,0.1-2.1,0.1-3.1,0.2L791.3,452.9L791.3,452.9z M792.3,460.5h1.9c0.6-0.1,1.4,0.1,2.2,0
		c0.8-0.2,1.8-0.3,2.8-0.3h3.4c1.2,0,2.5,0,3.8,0.1c0.7,0,1.3,0,2,0.1s1.4,0.1,2,0c1.4,0,2.8,0.1,4.2,0s2.8,0.1,4.2-0.1
		c0.7-0.1,1.4-0.1,2-0.2c0.7,0,1.3-0.1,2-0.1c1.3,0,2.6-0.2,3.8-0.1s2.3,0,3.4,0c0.5,0,1-0.1,1.5,0c0.5,0,0.9,0.1,1.4,0.1
		c0.8,0,1.6-0.1,2.2-0.1c1.2-0.1,1.9-0.1,1.9-0.1v1.6c0,0-0.7,0-1.9,0.1c-0.6,0-1.3,0-2.2,0.1c-0.4,0-0.9,0.1-1.3,0.2
		c-0.5,0.1-1,0-1.5,0c-1,0-2.2-0.1-3.4-0.1s-2.5-0.2-3.8-0.1s-2.6,0.4-4,0.2c-1.4-0.3-2.8,0.3-4.1,0.3c-1.4-0.2-2.8,0.1-4.2,0h-1
		c-0.3,0-0.7,0.1-1,0.1c-0.7,0.1-1.3,0-2-0.1c-0.3,0-0.7-0.1-1-0.1h-1c-0.6,0-1.2-0.2-1.8-0.2c-1.2,0-2.3,0.1-3.4,0.2
		c-0.5,0.1-1,0.1-1.5,0.1s-0.9,0-1.4-0.1c-0.8-0.1-1.6,0.2-2.2,0.2c-1.2,0.1-1.9,0.1-1.9,0.1L792.3,460.5L792.3,460.5z M793.4,468
		c0,0,0.7,0,2-0.1c0.6-0.1,1.4,0.1,2.2-0.1c0.4-0.1,0.9-0.2,1.4-0.2c0.5-0.1,1-0.1,1.5-0.1h7.4c0.7,0,1.3,0,2,0.1c0.3,0,0.7,0,1,0.1
		h1c1.4,0,2.8,0.1,4.3,0c1.4-0.1,2.9,0.1,4.3-0.1c0.7-0.1,1.4-0.1,2.1-0.2c0.7,0,1.4-0.1,2-0.1c1.3,0,2.6-0.2,3.9-0.1
		c1.2,0.1,2.4,0.1,3.5,0h1.5c0.5,0.1,0.9,0.1,1.4,0.1c0.9,0,1.6,0,2.3-0.1c1.2,0,2-0.1,2-0.1v1.6H835c-0.4,0-0.9,0.1-1.4,0.1h-1.5
		c-1.1,0-2.2-0.1-3.4-0.1s-2.5-0.3-3.8-0.1c-1.3,0-2.7,0.3-4.1,0.1c-1.4-0.3-2.8,0.3-4.2,0.3c-1.4-0.2-2.8,0.1-4.2,0h-1
		c-0.3,0-0.7,0.1-1,0.1c-0.7,0.1-1.4,0-2-0.1c-0.7-0.1-1.3,0-2-0.1c-0.6,0-1.3-0.2-1.9-0.2c-1.2,0-2.4,0.2-3.4,0.3
		c-0.5,0.1-1,0.1-1.5,0.1h-1.4c-0.4,0-0.8,0-1.2,0.1s-0.7,0.1-1,0.1c-1.2,0.1-2,0.2-2,0.2L793.4,468L793.4,468z M825.8,477
		c0,0,0.2-0.1,0.7-0.1c0.1,0,0.2-0.1,0.4,0c0.1,0,0.3,0,0.4-0.1c0.1-0.1,0.3-0.2,0.5-0.3c0.2-0.1,0.3-0.1,0.5-0.1
		c0.4-0.1,0.8-0.1,1.2-0.1s0.9-0.1,1.4,0c0.2,0,0.5,0,0.7,0.1h0.8c0.5-0.1,1,0.1,1.5,0c0.5,0,1,0.1,1.5,0c0.2-0.1,0.5-0.1,0.7-0.1
		h0.7c0.5,0,0.9-0.1,1.4,0c0.4,0.2,0.8,0.1,1.2,0.1c0.2,0,0.4,0,0.5,0.1c0.2,0.1,0.3,0.2,0.5,0.2h1.5l-0.3,1.6c0,0-0.2,0-0.7-0.1
		c-0.2,0-0.5-0.1-0.8-0.1c-0.1,0-0.3,0-0.5,0.1c-0.2,0-0.3,0-0.5-0.1c-0.4-0.1-0.7-0.2-1.2-0.2c-0.4,0-0.8-0.3-1.3-0.2
		c-0.5,0-0.9,0.3-1.4,0c-0.1-0.1-0.2-0.1-0.4-0.1c-0.1,0-0.2,0.1-0.4,0.1c-0.2,0.1-0.5,0.2-0.7,0.2c-0.5-0.2-1,0-1.5,0h-0.4
		c-0.1,0-0.2,0.1-0.3,0.1c-0.2,0.1-0.5,0-0.7-0.1c-0.1,0-0.2-0.1-0.3,0h-0.3c-0.2,0-0.5-0.2-0.7-0.1c-0.4,0-0.8,0.2-1.2,0.3
		c-0.3,0.2-0.7,0.2-1,0.1c-0.2,0-0.3,0-0.4,0.1c-0.1,0.1-0.2,0.1-0.3,0.1c-0.4,0.1-0.7,0.2-0.7,0.2L825.8,477L825.8,477z"/>
</g>
<g>
	<path class="st14" d="M782.2,230.3h70v45.8h-70V230.3z"/>
	<path class="st6" d="M791.3,240.5c1,0,2.1-0.1,3.1-0.1c1.1,0.1,2.1-0.1,3.1-0.3c2.1-0.2,4.2-0.1,6.3-0.2c1,0,2.1-0.1,3.1,0h3.1
		c1.1,0.1,2.1,0,3.1,0h3.1c1-0.1,2.1-0.1,3.1-0.1s2.1,0,3.1-0.2c1-0.1,2.1-0.2,3.1-0.2c1-0.1,2.1-0.1,3.1-0.2c0.5,0,1-0.1,1.6-0.1
		h1.6c1,0,2.1-0.1,3.1-0.1c0.5,0,1-0.1,1.6-0.1l1.6,0.1c1,0,2.1-0.1,3.1-0.2l1.8-0.1l-1.3,1.4l-1.4,1.4l-1.1-1.1l1.4-1.4l0.6,1.4
		c-1,0.1-2.1,0.1-3.1,0.2c-0.5,0.1-1,0.1-1.6,0.2h-6.3l-1.6-0.1c-1,0-2.1,0.1-3.1,0.2s-2.1,0.2-3.1,0.2c-1.1-0.3-2.1-0.1-3.1,0.1
		s-2.1,0.3-3.1,0.2c-1,0-2.1,0.1-3.1,0.1s-2.1-0.1-3.1,0.2c-1,0.1-2.1-0.1-3.1-0.1c-1,0.1-2.1,0-3.1-0.1c-2.1-0.1-4.2,0.4-6.3,0.4
		c-1,0-2.1-0.1-3.1,0.1c-1,0.1-2.1,0.1-3.1,0.2L791.3,240.5L791.3,240.5z M792.3,248.1h1.9c0.6-0.1,1.4,0.1,2.2,0
		c0.8-0.2,1.8-0.3,2.8-0.3h3.4c1.2,0,2.5,0,3.8,0.1c0.7,0,1.3,0,2,0.1s1.4,0.1,2,0c1.4,0,2.8,0.1,4.2,0s2.8,0.1,4.2-0.1
		c0.7-0.1,1.4-0.1,2-0.2c0.7,0,1.3-0.1,2-0.1c1.3,0,2.6-0.2,3.8-0.1c1.2,0.1,2.3,0,3.4,0c0.5,0,1-0.1,1.5,0c0.5,0,0.9,0.1,1.4,0.1
		c0.8,0,1.6-0.1,2.2-0.1c1.2-0.1,1.9-0.1,1.9-0.1v1.6c0,0-0.7,0-1.9,0.1c-0.6,0-1.3,0-2.2,0.1c-0.4,0-0.9,0.1-1.3,0.2
		c-0.5,0.1-1,0-1.5,0c-1,0-2.2-0.1-3.4-0.1s-2.5-0.2-3.8-0.1c-1.3,0.1-2.6,0.4-4,0.2c-1.4-0.3-2.8,0.3-4.1,0.3
		c-1.4-0.2-2.8,0.1-4.2,0h-1c-0.3,0-0.7,0.1-1,0.1c-0.7,0.1-1.3,0-2-0.1c-0.3,0-0.7-0.1-1-0.1h-1c-0.6,0-1.2-0.2-1.8-0.2
		c-1.2,0-2.3,0.1-3.4,0.2c-0.5,0.1-1,0.1-1.5,0.1s-0.9,0-1.4-0.1c-0.8-0.1-1.6,0.2-2.2,0.2c-1.2,0.1-1.9,0.1-1.9,0.1L792.3,248.1
		L792.3,248.1z M793.4,255.6c0,0,0.7,0,2-0.1c0.6-0.1,1.4,0.1,2.2-0.1c0.4-0.1,0.9-0.2,1.4-0.2c0.5-0.1,1-0.1,1.5-0.1h7.4
		c0.7,0,1.3,0,2,0.1c0.3,0,0.7,0,1,0.1h1c1.4,0,2.8,0.1,4.3,0c1.4-0.1,2.9,0.1,4.3-0.1c0.7-0.1,1.4-0.1,2.1-0.2c0.7,0,1.4-0.1,2-0.1
		c1.3,0,2.6-0.2,3.9-0.1c1.2,0.1,2.4,0.1,3.5,0h1.5c0.5,0.1,0.9,0.1,1.4,0.1c0.9,0,1.6,0,2.3-0.1c1.2,0,2-0.1,2-0.1v1.6H835
		c-0.4,0-0.9,0.1-1.4,0.1h-1.5c-1.1,0-2.2-0.1-3.4-0.1s-2.5-0.3-3.8-0.1c-1.3,0-2.7,0.3-4.1,0.1c-1.4-0.3-2.8,0.3-4.2,0.3
		c-1.4-0.2-2.8,0.1-4.2,0h-1c-0.3,0-0.7,0.1-1,0.1c-0.7,0.1-1.4,0-2-0.1c-0.7-0.1-1.3,0-2-0.1c-0.6,0-1.3-0.2-1.9-0.2
		c-1.2,0-2.4,0.2-3.4,0.3c-0.5,0.1-1,0.1-1.5,0.1h-1.4c-0.4,0-0.8,0-1.2,0.1s-0.7,0.1-1,0.1c-1.2,0.1-2,0.2-2,0.2L793.4,255.6
		L793.4,255.6z M825.8,264.5c0,0,0.2-0.1,0.7-0.1c0.1,0,0.2-0.1,0.4,0c0.1,0,0.3,0,0.4-0.1c0.1-0.1,0.3-0.2,0.5-0.3
		c0.2-0.1,0.3-0.1,0.5-0.1c0.4-0.1,0.8-0.1,1.2-0.1s0.9-0.1,1.4,0c0.2,0,0.5,0,0.7,0.1h0.8c0.5-0.1,1,0.1,1.5,0c0.5,0,1,0.1,1.5,0
		c0.2-0.1,0.5-0.1,0.7-0.1h0.7c0.5,0,0.9-0.1,1.4,0c0.4,0.2,0.8,0.1,1.2,0.1c0.2,0,0.4,0,0.5,0.1c0.2,0.1,0.3,0.2,0.5,0.2h1.5
		l-0.3,1.6c0,0-0.2,0-0.7-0.1c-0.2,0-0.5-0.1-0.8-0.1c-0.1,0-0.3,0-0.5,0.1c-0.2,0-0.3,0-0.5-0.1c-0.4-0.1-0.7-0.2-1.2-0.2
		c-0.4,0-0.8-0.3-1.3-0.2c-0.5,0-0.9,0.3-1.4,0c-0.1-0.1-0.2-0.1-0.4-0.1c-0.1,0-0.2,0.1-0.4,0.1c-0.2,0.1-0.5,0.2-0.7,0.2
		c-0.5-0.2-1,0-1.5,0h-0.4c-0.1,0-0.2,0.1-0.3,0.1c-0.2,0.1-0.5,0-0.7-0.1c-0.1,0-0.2-0.1-0.3,0h-0.3c-0.2,0-0.5-0.2-0.7-0.1
		c-0.4,0-0.8,0.2-1.2,0.3c-0.3,0.2-0.7,0.2-1,0.1c-0.2,0-0.3,0-0.4,0.1c-0.1,0.1-0.2,0.1-0.3,0.1c-0.4,0.1-0.7,0.2-0.7,0.2
		L825.8,264.5L825.8,264.5z"/>
</g>
<g>
	<path class="st12" d="M1582.1,968.7c-0.5,8.5-1.4,17-2.6,25.5c-0.4,2.5-1,5.3-3.2,6.5c-1.3,0.7-2.9,0.7-4.3,0.6
		c-5.4-0.3-10.8-0.7-16.2-1.3c-0.4,0-0.9-0.1-1.2-0.5c-0.2-0.3-0.2-0.7-0.2-1.1c1.2-10.5,2.3-21.1,3.5-31.6 M1625.7,917.1
		c7.2,9.4,15.2,18.2,23.9,26.4c-4.5,8.1-8.9,16.2-13.4,24.3c-0.3,0.6-0.7,1.2-1.3,1.4c-1,0.4-2-0.6-2.7-1.4
		c-5.1-6.5-9.9-13.2-14.4-20.1c-1-1.5-2-3.4-1.3-5"/>
	<path class="st15" d="M1456.7,518c-7.1,41.9-17.3,81.4-27.8,122.5c-10.4,40.5-17.7,81.2-20.4,122.9c-0.1,1.6-0.2,3.3,0.3,4.9
		c0.6,1.8,2,3.1,3.4,4.3c68.3,62.4,131.6,131.9,206.5,186.1c3.2-2.6,25.3-29.9,22.1-34c-24.1-31.2-48.5-62.1-72.6-93.3
		c-21.4-27.7-45.9-53.7-64.6-83.4c-1.3-2.1-2.6-4.3-2.5-6.7c0.1-1.8,0.9-3.4,1.7-5c24.2-48.4,65.6-93.9,75.4-148
		c4-22.1,4.4-44.8,5.8-67.2"/>
	<path class="st16" d="M1563.6,626.2c-25.6,26-52.8,51-81.7,73.3c-4.5,3.5-9.6,9-6.9,14s12.3,6.3,11.1,11.9
		c-8.2-1.9-17,6.2-15.7,14.5c5.9-0.6,13.7,0.1,15.1,5.8c0.8,3.2-1,6.4-1,9.7c-0.1,9,9.8,10.8,15.2,15.6c8.4,7.5,11.7,15.7,18.2,24.8
		c12.6,17.5,29.5,33,43.8,49.2c6.9,7.9,14.6,16.2,24.8,18.2c6.1-18-9.7-35.3-23.4-48.5c-18.5-17.9-35.7-37.3-51.2-57.9
		c-3.9-5.2-7.9-10.9-8-17.5c-0.1-5.9,3-11.3,6-16.4c20-33.2,42.5-65,67.2-94.9"/>
	<path class="st17" d="M1647.8,540.5c1.2,58.1-6,115.3-14.8,172.6c-6.7,44.3-13.5,88.7-20.2,133c-7,45.7-21.1,89.3-28.1,134.6
		c-9.6,0.4-19.2,0.8-28.9,1.1c-1.1,0-2.3,0.1-3.2-0.6c-1.1-0.8-1.3-2.2-1.5-3.5c-9-66.6-17.6-133.4-13.4-200.8
		c1.7-27.2,1.8-54.4,0.2-81.6c-2.6-45.5-1-91.1-5.1-136.6"/>
	<path class="st18" d="M1378.1,437.1c-19.4-9.6-42.3-9.8-62.2-20.8c-5.4-3-11.7-6.3-17.3-3.8c-2.4,1.1-4.3,3.2-6,5.2
		c-2.5,2.8-4.8,7.4-1.9,9.8c1.2,1,2.8,1.1,4.3,1.3c8.5,1.3,14.5,7.9,18.7,14.8c9.2,15.3,20.6,27,34.1,38.5
		c10.8,9.3,25.4,21.5,40,23.5c31.8,4.4,20.5-43.7,8.3-57.3c-2.8-3.2-6.6-5.3-10.3-7.3C1383.1,439.6,1380.6,438.3,1378.1,437.1
		L1378.1,437.1z"/>
	<path class="st19" d="M1589.2,992.7c-3.5-3.7-25.9,2.4-33.5-0.6c-3.3-1.3-6.4-3.1-9.8-3.9c-11.5-2.9-37.2,10.5-44.4,20
		c-2.1,2.8-3,6.8-1.2,9.8l60-0.6l35.9-0.3C1598,1008.6,1595.3,999.1,1589.2,992.7z"/>
	<path class="st19" d="M1695.6,1019.7h-3.4c-1.1,0-2.5,0-4.1-0.1s-3.5-0.1-5.6-0.1c-1,0-2.2,0.1-3.3,0.2c-1.2,0-2.4,0-3.6-0.1
		c-1.3-0.1-2.6-0.2-3.9-0.2c-1.4,0-2.8,0-4.2,0.1c-2.9,0.1-6,0.2-9.3,0.4c-1.6,0-3.3,0.1-5,0.1s-3.5-0.1-5.3-0.2
		c-1.8-0.1-3.6-0.1-5.5,0s-3.8,0.2-5.7,0.2c-3.9-0.1-7.9-0.2-12-0.4c-4.1-0.1-8.3-0.1-12.7,0.2c-1.1,0-2.2,0.1-3.3,0
		c-1.1-0.1-2.2-0.2-3.3-0.2c-1.1-0.1-2.2,0-3.3,0.1c-1.1,0.1-2.2,0-3.4,0c-4.5-0.1-9.1-0.1-13.7-0.2h-10.5c-1.2,0-2.3-0.1-3.5-0.2
		c-2.4-0.2-4.7-0.3-7.1,0c-2.4,0.2-4.8,0.1-7.1,0c-2.4-0.1-4.8-0.3-7.2-0.3c-2.4,0-4.8,0-7.2,0.1c-4.8,0.1-9.6,0-14.3,0
		c-2.4,0-4.8-0.1-7.1-0.1c-2.4-0.1-4.7,0.1-7.1,0.2c-4.7,0.2-9.4,0.3-14,0.5c-2.3,0-4.6,0.1-6.9,0.1h-3.4c-1.1-0.1-2.3-0.1-3.4-0.2
		c-4.5-0.2-8.9,0.1-13.2,0.2c-2.2,0-4.3,0.2-6.4,0.2c-2.1-0.1-4.2-0.2-6.3-0.1c-2.1,0-4.1,0.1-6.1,0.1s-4-0.1-5.9-0.3
		c-3.9-0.3-7.6,0.2-11.2-0.1c-3.6-0.4-7,0.4-10.3,0.1c-3.3-0.2-6.4-0.3-9.3-0.3c-1.5,0-2.9,0.1-4.2,0.1h-3.9
		c-2.5-0.1-4.8-0.2-6.9-0.1c-2.1,0.1-4,0.2-5.6,0.3c-1.6,0-3,0.1-4.1,0.1h-3.5v-2.4h7.6c1.6,0,3.5,0.1,5.6,0.2
		c2.1,0.1,4.4,0,6.9-0.2s5.3,0,8.2,0.1c2.9,0,6-0.2,9.3-0.4c1.6-0.1,3.3-0.1,5,0.1c1.7,0.3,3.5,0.3,5.3,0.1
		c3.6-0.4,7.3,0.4,11.2,0.1c3.9-0.4,7.9-0.2,12,0c2.1,0.1,4.1,0,6.3-0.1c2.1,0,4.2,0.1,6.4,0.1c4.3,0.1,8.7,0.4,13.2,0
		c1.1-0.1,2.2-0.2,3.4-0.2c1.1,0,2.3-0.1,3.4-0.1h6.9c2.3,0,4.6,0.1,7,0.1c2.3,0,4.7,0.1,7,0.3c2.4,0.2,4.7,0.3,7.1,0.2
		s4.8-0.2,7.1-0.3c4.8-0.1,9.6-0.3,14.3-0.2c2.4,0.1,4.8,0.3,7.2,0.3c1.2,0,2.4-0.1,3.6-0.1l3.6-0.3c1.2-0.1,2.4-0.2,3.6-0.2
		c1.2-0.1,2.4,0,3.6,0.2c2.4,0.5,4.7,0.4,7.1,0c1.2-0.2,2.4-0.2,3.5-0.3c1.2-0.1,2.3,0,3.5,0c2.3,0.1,4.7,0.1,7,0.2
		c4.6,0,9.2,0.1,13.7,0.1c1.1,0,2.2,0,3.4,0.1c1.1,0.2,2.2,0.3,3.3,0.2c1.1,0,2.2-0.2,3.3-0.2h3.3c4.3,0.3,8.5,0.3,12.7,0.4
		c4.1,0,8.1,0,12-0.1c1.9,0,3.8,0,5.7,0.1c1.9,0,3.7,0,5.5-0.1c7.2-0.5,13.8,0,19.6,0c1.5,0,2.9,0.1,4.2,0.1c1.4,0,2.7-0.1,3.9-0.2
		c1.3-0.1,2.5-0.1,3.6-0.1c1.2,0,2.3,0.1,3.3,0.1c2.1,0,4-0.1,5.6-0.1c1.6-0.1,3-0.1,4.1-0.1c2.2,0,3.4-0.1,3.4-0.1v2.6
		L1695.6,1019.7z"/>
	<path class="st19" d="M1651.7,930.4c-5,1.2-10.8,23.7-17.2,28.8c-2.8,2.2-5.8,4-8.3,6.6c-8.2,8.6-9.4,37.5-4.7,48.4
		c1.4,3.2,4.4,6,7.9,5.9c9.8-17.5,19.6-34.9,29.4-52.4c5.8-10.4,11.7-20.8,17.5-31.3C1669.8,930.6,1660.2,928.2,1651.7,930.4
		L1651.7,930.4z"/>
	<path class="st18" d="M1597.1,234c-0.1,10.4-0.9,21.2-6.6,30.3c-2.9,4.7-6.9,8.6-10.3,13c-12.5,16.1-16.8,38.1-11.4,57.7
		c1.5,5.4,3.5,11.8,0,16.3c-2.3,2.9-6.2,3.8-9.8,4.3c-13.9,1.9-28.4,0-41.4-5.5c-1.2-0.5-2.4-1.1-3-2.2c-0.7-1.4-0.2-3.1,0.4-4.6
		c5.9-15.4,11.8-30.7,17.6-46.1c7.1-18.7-16.4-28.2-16.1-48.7c0.2-12.1,0.4-24.3,0.5-36.4c0.1-8.1,0.4-16.7,5-23.3
		c6.3-9.2,18.7-11.7,29.8-11.8c14.3-0.2,24.2,4,35.4,12.9c3.7,2.9,7.5,6.1,9.1,10.5c1,2.7,0.9,5.7,0.9,8.6
		C1597.2,217.3,1597.1,225.7,1597.1,234L1597.1,234z"/>
	<path class="st7" d="M1547.1,229.1l-9.9,15.3l18.4,0.2L1547.1,229.1z"/>
	<path class="st6" d="M1466.1,290.2c-10,4.2-19.7,9.2-29.2,13.4c-3.4,1.5-6.9,3.1-9.5,5.8c-3.9,4.1-5.1,10-6.2,15.6
		c-7.5,38.3-18.4,75.8-32.7,112.1c-1-6.3-10.6-8.9-14.6-4c-0.6,0.7,2.9,14.3,3,16.4c0.2,6.2-0.6,12.6-2.4,18.5
		c-3.9,12.8-12,15.8-19.1,25.1c-1.7,2.2-2.1,5.7-0.1,7.7c2.5,2.5,6.3,1,9.2,2.5c2.6,1.4,4.1,4.2,6.5,5.5c7.8,4.5,6.1,2,14.1,0.3
		c1.8-0.4,3.6,0.4,5.2,1.2c6.3,3,12.6,6,18.8,8.9c1.4,0.7,3.1,1.4,4.6,0.9c1-0.3,1.7-1.1,2.4-1.9c7.4-8.1,14-17.2,20.9-25.5
		c4.7-5.7,19.6-21.4,19.7-28.8c-0.2,14.5,2.7,29.6,0.3,43.8c-3.5,21-8.6,39.9-17.7,59.1c12.7,2.5,25.2,6.5,37,11.8
		c1.6,0.7,27.3,14.1,27.5,12.9c2.5-16.1,5.3-32.1,7.4-48.2c3,13.7,7.2,27.1,12.6,39.9c2.6,6.1,5.7,12.4,11.3,15.8
		c3.6,2.2,7.9,3,12,3.7c20.5,3.5,41.1,6.4,61.8,8.6c-0.2-10.2-0.3-20.4-0.5-30.6c-0.1-6-0.1-12.3,3-17.4c7.1-11.8,24.7-3.7,31.4,4.1
		c2.1,2.4,4.2,5,5.1,8.1c0.8,2.8,0.5,5.8,0.2,8.7c-1,8.9-0.9,17.8-1.9,26.7c-0.3,2.3,12.3-7.6,12.9-8.6c5.6-8.8,3.7-20.2,1.6-30.4
		c-3.2-15.6-4.4-48.1,19.3-47.6c22.9,0.5,33.7-15.6,34.8-37.5c0.2-4.5-0.1-9.6-3.5-12.5c-1-0.9-2.4-1.5-3-2.7
		c-1.7-3.4,0.6-9.3-1.4-12.6c-2.9-5.1-8.9-2.5-10.1-8.8c-4.8-25.7-10.2-54.3-10.2-80.6c-0.6-8.3-0.8-16.6-2.9-24.7
		c-4.9-19.6-20.5-32.8-37.1-42.9c-12.8-7.8-25.4-17.5-39.8-22.3c-9.7-3.2-18.5-0.3-28.1,0.7c-2.7,0.3-22.5,0.4-22.5,0.6
		c-5.2,18.6-10.3,37.5-16.2,56c-2.8-14.7-1.1-30.1-3.4-44.4c-1.8-11.5-9.6-11.7-19.1-11.3c-4.7,0.2-9.5-0.6-14.2-0.6
		C1490.6,281.2,1478.2,285.1,1466.1,290.2L1466.1,290.2z"/>
	<path class="st19" d="M1534.2,294.9c-11.7-0.9-23.7-5-27.7-16.6c-0.5-1.5-0.9-3.1-0.7-4.7c0.2-1.6,1.1-3.1,2.6-3.8
		c0.9-0.4,1.8-0.4,2.8-0.5c3.1-0.4,5-2.4,6.5-5.2c2.5-4.6,0-6.9-3.3-9.4c-2.2-1.7-4.2-4-4.7-6.8s1.1-6,3.8-6.6
		c0.6,1.9,2.3,3.4,4.2,4.2c1.9,0.8,4,1,6,1.1c3.2,0.2,6.4,0.1,9.4-1c2.6-1,4.7-2.8,7.1-4.2c6.3-3.5,13.1,0.6,19.1,3.1
		s12.2,4.5,18.7,2.4c9.6-3.1,17.8-8.1,18-18.6c0-0.7,0-1.5-0.4-2.2c-0.5-0.8-1.4-1.1-2.2-1.5c-12.1-6.4,4.2-22.3-5.2-30.8
		c-3.8-3.4-9.7-2.9-14.7-1.7c-13.5,3.2-26,9.9-39.5,12.9s-29.5,1.6-38.5-8.9c-3-3.4-5.1-7.9-4.8-12.4c0.3-4.5,3.3-9,7.7-10.2
		c3.9-1,8.4,0.5,11.7-1.6c2.6-1.6,3.6-4.9,5.7-7c4.2-4.2,11.1-3,16.9-2c12.8,2.1,22.1-8.6,33.9-12.2c11.6-3.5,26.5,0.2,28.2,13.8
		c31.3-1.6,22.8,38.9,16.2,55.9c-3.3,8.6-17.4,25.7-11.1,34.7c0.7,1,1.6,1.9,2.2,3c2.3,3.9,0.1,8.9-2.4,12.7
		c-12.3,18.9-33,22.9-54.5,24.1C1541.7,295.2,1537.9,295.2,1534.2,294.9L1534.2,294.9z"/>
	<path class="st18" d="M1697.9,512c-1.6,2.9-3.6,5.6-5.7,8.2c-6.8,8.5-14.4,16.3-22.7,23.3c-7.5,6.4-15.7,12.3-21.8,20.1
		c-9.1,11.8-3.9,23.5-9.6,35.4c-9.4-7.4-17-17.1-21.9-28c-0.8-1.8-1.6-3.7-1.7-5.6c-0.1-2,0.5-3.9,1.1-5.8
		c7.8-25.9,13.5-54.1,29.1-76.7c14.5-20.9,61.8-3.5,55.8,22.6C1699.9,507.8,1699,509.9,1697.9,512L1697.9,512z M1317.5,418.8
		c-2.7-6.4-9-11.1-15.8-12c-11.9-1.7-22.8,7.2-34.8,8.3c-9.5,0.9-19.2-3.3-28.6-1.6c8.8,17.7,31.2,27.4,50.1,21.5
		c7.1-2.2,13.7-6.3,21.1-7.3"/>
</g>
<g>
	<path class="st18" d="M1095.3,196.3c1.3-1.8,2.6-3.6,4.4-4.9c6.2-4.7,15.5-5.2,22.9-7c2.1-0.5,4.6-0.9,6.2,0.5
		c1,0.9,1.4,2.3,1.7,3.7c1.9,8.2,4.3,16.3,1.4,24.6c-1.9,5.5-5.1,10.3-8.3,15.2c-4.9,7.4-10.8,14.8-14.8,22.7
		c-0.9,1.1-1.9,2.4-3.3,2.7c-1.1,0.3-2.2-0.1-3.3-0.5c-10-3.8-22.6-11.4-29.1-20c-2.1-2.8,18.1-30.4,20.3-34
		C1094.1,198.3,1094.7,197.3,1095.3,196.3L1095.3,196.3z"/>
	<path class="st20" d="M1096.5,238.3c0,0.7,0.6,1.5,1.3,1.7c1-7.4,0.3-15-2-22.1c-1.7,5.4,1.1,11.7,6.2,14.2
		c0.6,0.3,1.2,0.5,1.8,0.2c0.4-0.2,0.6-0.7,0.8-1.1c1.7-4.5,1.4-9.6-0.7-13.9c-0.4,2.1-0.9,4.2-0.2,6.2s3,3.5,4.9,2.7
		c3.9-1.8,0.2-8.7,3.3-11.7"/>
	<path class="st6" d="M1120.2,194.9c-2.9-0.9-6.5,1.1-7,4.1c-0.9,4.8,5.4,8.4,9,5.1C1125.2,201.4,1124.1,196,1120.2,194.9
		L1120.2,194.9z"/>
</g>
<g>
	<path class="st12" d="M1091.3,136.7c0,0-0.1,0.5-0.2,1.5s-0.3,2.4,0,4.1c0.2,0.8,0.5,1.7,1.2,2.4c0.2,0.2,0.3,0.4,0.5,0.5
		c0.2,0.2,0.4,0.3,0.7,0.5c0.5,0.3,1,0.4,1.6,0.5c2.4,0.4,5.1-0.4,7.9-1.9c0.7-0.4,1.5-0.7,2.2-1.1l1.2-0.6c0.4-0.2,0.8-0.3,1.2-0.5
		c1.7-0.6,3.6-1.1,5.4-1.4c3.8-0.6,8-0.4,12,0.9c2,0.6,3.9,1.6,5.7,2.9c1.8,1.3,3.3,2.8,4.9,4.2c0.8,0.7,1.6,1.3,2.5,1.7
		c0.4,0.2,1,0.4,1.4,0.5c0.6,0.1,0.9,0.1,1.5,0c0.9-0.2,1.9-0.6,2.6-1.4c0.7-0.7,1.1-1.7,0.8-2.5l-0.3-0.6c-0.1-0.1-0.2-0.2-0.2-0.3
		l-0.2-0.2c-0.3-0.3-0.8-0.4-1.3-0.4c-0.9-0.1-1.9,0.3-2.7,0.9c-1.7,1.1-2,3.4-1.7,5.5c0.1,1,0.4,2,0.5,3.1l0.1,0.8l0.1,0.8l0.2,1.6
		c0.2,1,0.1,2.1,0.2,3.2s0,2.1,0,3.1c-0.2,4.1-0.9,8.1-2.2,11.7c-1.3,3.6-2.8,6.8-4.5,9.7c-1.6,2.9-3.6,5.2-5.4,7.2
		c-0.9,1-1.7,1.9-2.6,2.7s-1.6,1.6-2.3,2.2c-0.7,0.6-1.4,1.2-2,1.6c-0.6,0.5-1.1,0.8-1.6,1.1c-0.9,0.6-1.3,0.9-1.3,0.9l-0.8-1.3
		c0,0,0.4-0.3,1.3-0.9c0.4-0.3,0.9-0.6,1.5-1c0.6-0.5,1.2-1,1.9-1.6c0.7-0.6,1.4-1.3,2.3-2.1c0.8-0.8,1.6-1.7,2.5-2.6
		c1.6-2,3.3-4.4,5-7.1c1.6-2.7,3.3-5.8,4.4-9.3s2.3-7.2,2.3-11.2c0-1,0.1-2,0-3s0-2-0.2-3l-0.2-1.6l-0.1-0.7l-0.1-0.8
		c-0.2-1-0.4-2.1-0.4-3.2s0.1-2.3,0.3-3.4c0.1-0.3,0.2-0.6,0.3-0.8l0.1-0.2c0.1-0.1,0.1-0.2,0.1-0.2c0.1-0.1,0.1-0.3,0.2-0.4
		c0.3-0.6,0.8-1,1.3-1.4c1-0.8,2.2-1.3,3.6-1.2c0.7,0,1.4,0.2,2,0.7c0.2,0.1,0.3,0.3,0.5,0.4l0.3,0.3l0.1,0.1c0,0,0.1,0.2,0.1,0.1
		v0.1l0.1,0.2c0.1,0.2,0.2,0.3,0.2,0.5c0.3,0.7,0.1,1.5-0.1,2.2s-0.6,1.2-1.1,1.7c-0.9,0.9-2,1.5-3.3,1.8c-0.6,0.1-1.5,0.1-1.9,0
		h-0.3l-0.2-0.1c-0.1,0-0.3-0.1-0.4-0.1c-0.3-0.1-0.6-0.2-0.8-0.3c-1.1-0.5-2-1.2-2.9-1.9c-0.8-0.7-1.6-1.5-2.4-2.2
		s-1.6-1.3-2.5-1.8s-1.7-1-2.6-1.5c-0.4-0.2-0.9-0.4-1.3-0.6c-0.5-0.2-0.9-0.4-1.4-0.5c-1.8-0.7-3.8-0.9-5.7-1.1
		c-1.9-0.2-3.8-0.1-5.6,0.1c-1.8,0.3-3.5,0.8-5.1,1.4c-0.4,0.2-0.8,0.4-1.2,0.5c-0.4,0.2-0.8,0.4-1.1,0.6c-0.7,0.4-1.5,0.8-2.2,1.2
		c-1.5,0.8-2.9,1.4-4.5,1.8c-1.6,0.3-3.1,0.3-4.5,0s-2.6-1-3.5-1.9s-1.4-2.1-1.6-3.1c-0.4-2-0.2-3.6-0.1-4.6s0.2-1.6,0.2-1.6
		L1091.3,136.7L1091.3,136.7z"/>
</g>
<g>
	<path class="st1" d="M862.5,978.2c0,0,4.8,0,13.3-0.1c4.2,0,9.3-0.1,15.2-0.1s12.5-0.1,19.8-0.1h11.3c3.9,0,7.9,0.1,12.1,0.1
		c4.1,0,8.4,0.1,12.8,0.1s8.8,0.3,13.3,0.2c9,0,18.4,0,27.9,0.1c4.8,0.1,9.5,0.1,14.3,0.2c4.8,0,9.6,0.1,14.5,0.1
		c9.7,0,19.3-0.1,28.8-0.2s18.9-0.1,27.9-0.2s17.8-0.1,26.1-0.2s16.1,0,23.4,0.1c7.2,0.1,13.9,0.2,19.8,0.1c5.9,0,11-0.1,15.2-0.1
		c8.4-0.1,13.3-0.1,13.3-0.1v2.4c0,0-4.8,0-13.3,0.1c-8.4,0-20.5,0.2-35,0.1c-7.2-0.1-15.1-0.2-23.4-0.2h-26.1
		c-18.1,0-37.4,0.1-56.7,0.1c-9.7,0.1-19.3,0.2-28.8,0.2s-18.9-0.2-27.9-0.4c-4.5-0.2-9,0.1-13.3,0c-4.4-0.1-8.6-0.1-12.8-0.2
		c-4.1,0-8.2-0.1-12.1-0.1c-3.9,0.1-7.7,0.1-11.3,0.2c-1.8,0-3.6,0.1-5.3,0.1h-43V978.2L862.5,978.2z"/>
</g>
<g>
	<path class="st1" d="M979.9,959.5c0,0,1.4,0,3.8-0.1c1.2,0,2.7-0.1,4.4-0.1s3.6-0.1,5.7-0.1h3.2c1.1,0,2.3,0.1,3.5,0.1
		s2.4,0.1,3.7,0.1c0.6,0,1.3,0.1,1.9,0.1c0.6,0.1,1.3,0.1,1.9,0.1c2.6,0,5.3,0,8,0.1c1.4,0.1,2.7,0.1,4.1,0.2l2.1,0.1h2.1
		c2.8,0,5.6-0.1,8.3-0.2c2.7-0.1,5.4-0.1,8-0.2c2.6-0.1,5.1-0.1,7.5-0.2c2.4-0.1,4.6,0,6.7,0.1s4,0.1,5.7,0.1s3.2-0.1,4.4-0.1
		c1.2,0,2.2-0.1,2.8-0.1h1v2.4c0,0-1.4,0-3.8,0.1c-2.4,0-5.9,0.2-10.1,0.1c-2.1-0.1-4.3-0.2-6.7-0.2h-7.5c-5.2,0-10.8,0.1-16.3,0.1
		c-2.8,0-5.6,0.3-8.3,0.3s-5.4-0.3-8-0.4c-0.7,0-1.3-0.1-1.9-0.1c-0.6,0.1-1.3,0.1-1.9,0.1c-1.3-0.1-2.5-0.1-3.7-0.2
		c-2.4-0.1-4.6-0.2-6.7,0.1c-2.1,0.2-4,0.1-5.7,0.2c-1.7,0-3.2,0-4.4,0.1h-3.8L979.9,959.5L979.9,959.5z"/>
</g>
<g>
	<path class="st1" d="M1219.4,918.4c0,0,3.5,0,9.7-0.1c3.1,0,6.8-0.1,11.1-0.1s9.1-0.1,14.4-0.1h8.2c2.8,0,5.8,0.1,8.8,0.1
		s6.1,0.1,9.3,0.1c3.2,0,6.4,0.3,9.7,0.2c6.6,0,13.4,0,20.3,0.1c3.5,0.1,6.9,0.1,10.4,0.2c3.5,0,7,0.1,10.5,0.1c7,0,14-0.1,21-0.2
		c6.9-0.1,13.7-0.1,20.3-0.2c6.6-0.1,12.9-0.1,19-0.2c6-0.1,11.7,0,17,0.1s10.1,0.1,14.4,0.1s8-0.1,11.1-0.1
		c6.1-0.1,9.7-0.1,9.7-0.1v2.4c0,0-3.5,0-9.7,0.1c-6.1,0-14.9,0.2-25.5,0.1c-5.3-0.1-11-0.2-17-0.2h-19c-13.2,0-27.2,0.1-41.3,0.1
		c-7,0.1-14,0.2-21,0.2c-6.9,0.1-13.7-0.3-20.3-0.4c-1.6,0-3.3-0.1-4.9-0.1s-3.2,0.1-4.8,0.1c-3.2-0.1-6.3-0.1-9.3-0.2
		c-3,0-6-0.1-8.8-0.1s-5.6,0.1-8.2,0.2c-1.3,0-2.6,0.1-3.9,0.1h-31.3v-2.2L1219.4,918.4z"/>
</g>
<g>
	<path class="st1" d="M1790.9,918.4c0,0,1.4,0,3.8-0.1c1.2,0,2.7-0.1,4.4-0.1c1.7,0,3.6-0.1,5.7-0.1h3.2c1.1,0,2.3,0.1,3.5,0.1
		s2.4,0.1,3.7,0.1c0.6,0,1.3,0.1,1.9,0.1c0.6,0.1,1.3,0.1,1.9,0.1c2.6,0,5.3,0,8,0.1c1.4,0.1,2.7,0.1,4.1,0.2l2.1,0.1h2.1
		c2.8,0,5.6-0.1,8.3-0.2c2.7-0.1,5.4-0.1,8-0.2c2.6-0.1,5.1-0.1,7.5-0.2c2.4-0.1,4.6,0,6.7,0.1s4,0.1,5.7,0.1s3.2-0.1,4.4-0.1
		c1.2,0,2.2-0.1,2.8-0.1h1v2.4c0,0-1.4,0-3.8,0.1c-2.4,0-5.9,0.2-10.1,0.1c-2.1-0.1-4.3-0.2-6.7-0.2h-7.5c-5.2,0-10.8,0.1-16.3,0.1
		c-2.8,0-5.6,0.3-8.3,0.3c-2.7,0-5.4-0.3-8-0.4c-0.7,0-1.3-0.1-1.9-0.1c-0.6,0.1-1.3,0.1-1.9,0.1c-1.3-0.1-2.5-0.1-3.7-0.2
		c-2.4-0.1-4.6-0.2-6.7,0.1c-2.1,0.2-4,0.1-5.7,0.2c-1.7,0-3.2,0-4.4,0.1h-3.8L1790.9,918.4L1790.9,918.4z"/>
</g>
<g>
	<path class="st0" d="M317.5,457.5l23.5-0.2l11.8-0.1h11.8l11.8,0.1l5.9,0.1c2,0,3.9,0,5.9,0.1c2,0.1,3.9,0.1,5.9,0.1h17.7
		c0.5,0,1,0.4,1,1c0,2.3,0,4.7-0.1,7l-0.1,7l-0.2,14c0,0.3-0.3,0.6-0.6,0.6H400l-11.8,0.1l-23.5,0.2l-23.5,0.2h-5.9l-5.9-0.1
		c-3.9-0.1-7.8-0.1-11.8-0.1c-0.5,0-1-0.4-1-1v-7l-0.1-7l-0.1-14C316.3,458,316.8,457.5,317.5,457.5L317.5,457.5z M318.7,459.9
		l0.2,26.7l-1.4-1.4c3.9,0,7.8-0.1,11.8,0l11.8,0.2h70.6l-1.3,1.3l-0.2-14l-0.1-7c0-2.3-0.1-4.7,0-7l1.5,1.5
		c-3.9,0-7.8-0.2-11.8-0.3l-5.9-0.2c-2-0.1-3.9-0.1-5.9,0c-2,0.1-3.9,0-5.9,0l-5.9-0.1l-11.8-0.2c-3.9,0-7.8,0.2-11.8,0.2
		c-2,0.1-3.9,0-5.9,0.1h-5.9L318.7,459.9L318.7,459.9z"/>
	<path class="st0" d="M367.4,517.6l-24.6,0.2l-12.3,0.1h-12.3l-12.3-0.1l-6.1-0.1h-3.1l-3.1-0.1c-2-0.1-4.1-0.1-6.1-0.1h-18.4
		c-0.5,0-1-0.4-1-1c0-2.3,0.1-4.7,0.1-7l0.1-7l0.2-14c0-0.3,0.3-0.6,0.6-0.6h12.2l12.3-0.1l24.6-0.2l24.6-0.2c4.1,0,8.2,0,12.3,0.1
		l12.3,0.1c0.5,0,1,0.4,1,1l0.2,27.9C368.6,517,368.1,517.6,367.4,517.6L367.4,517.6z M366.2,515.2l-0.2-26.7l1.4,1.4h-12.3
		l-12.3-0.2h-73.7l1.3-1.3l0.2,14l0.1,7c0,2.3,0.1,4.7,0,7l-1.5-1.5l12.3,0.2l6.1,0.2l3.1,0.1h3.1l3.1-0.1l3.1,0.1l6.1,0.1l12.3,0.2
		c2,0,4.1-0.1,6.1-0.1l6.1-0.1c2-0.1,4.1-0.1,6.1-0.1h6.1L366.2,515.2L366.2,515.2z"/>
	<path class="st0" d="M415.8,547.3l-24.6,0.2l-12.3,0.1h-12.3l-12.3-0.1l-6.1-0.1h-3.1l-3.1-0.1c-2-0.1-4.1-0.1-6.1-0.1h-18.4
		c-0.5,0-1-0.4-1-1c0-2.3,0.1-4.7,0.1-7l0.1-7l0.2-14c0-0.3,0.3-0.6,0.6-0.6h12.2l12.3-0.1l24.6-0.2l24.6-0.2c4.1,0,8.2,0,12.3,0.1
		l12.3,0.1c0.5,0,1,0.4,1,1l0.2,27.9C417,546.8,416.5,547.3,415.8,547.3L415.8,547.3z M414.6,545l-0.2-26.7l1.4,1.4h-12.3l-12.3-0.2
		h-73.7l1.3-1.3l0.2,14l0.1,7c0,2.3,0.1,4.7,0,7l-1.5-1.5l12.3,0.2l6.1,0.2l3.1,0.1h3.1l3.1-0.1l3.1,0.1l6.1,0.1l12.3,0.2
		c2,0,4.1-0.1,6.1-0.1l6.1-0.1c2-0.1,4.1-0.1,6.1-0.1h6.1L414.6,545L414.6,545z"/>
</g>
<g>
	<path class="st0" d="M567.5,607.5l23.5-0.2l11.8-0.1h11.8l11.8,0.1l5.9,0.1c2,0,3.9,0,5.9,0.1c2,0.1,3.9,0.1,5.9,0.1h17.7
		c0.5,0,1,0.4,1,1c0,2.3,0,4.7-0.1,7l-0.1,7l-0.2,14c0,0.3-0.3,0.6-0.6,0.6H650l-11.8,0.1l-23.5,0.2l-23.5,0.2h-5.9l-5.9-0.1
		c-3.9-0.1-7.8-0.1-11.8-0.1c-0.5,0-1-0.4-1-1v-7l-0.1-7l-0.1-14C566.3,608,566.8,607.5,567.5,607.5L567.5,607.5z M568.7,609.9
		l0.2,26.7l-1.4-1.4c3.9,0,7.8-0.1,11.8,0l11.8,0.2h70.6l-1.3,1.3l-0.2-14l-0.1-7c0-2.3-0.1-4.7,0-7l1.5,1.5
		c-3.9,0-7.8-0.2-11.8-0.3l-5.9-0.2c-2-0.1-3.9-0.1-5.9,0c-2,0.1-3.9,0-5.9,0l-5.9-0.1l-11.8-0.2c-3.9,0-7.8,0.2-11.8,0.2
		c-2,0.1-3.9,0-5.9,0.1h-5.9L568.7,609.9L568.7,609.9z"/>
	<path class="st0" d="M617.4,667.6l-24.6,0.2l-12.3,0.1h-12.3l-12.3-0.1l-6.1-0.1h-3.1l-3.1-0.1c-2-0.1-4.1-0.1-6.1-0.1h-18.4
		c-0.5,0-1-0.4-1-1c0-2.3,0.1-4.7,0.1-7l0.1-7l0.2-14c0-0.3,0.3-0.6,0.6-0.6h12.2l12.3-0.1l24.6-0.2l24.6-0.2c4.1,0,8.2,0,12.3,0.1
		l12.3,0.1c0.5,0,1,0.4,1,1l0.2,27.9C618.6,667,618.1,667.6,617.4,667.6L617.4,667.6z M616.2,665.2l-0.2-26.7l1.4,1.4h-12.3
		l-12.3-0.2h-73.7l1.3-1.3l0.2,14l0.1,7c0,2.3,0.1,4.7,0,7l-1.5-1.5l12.3,0.2l6.1,0.2l3.1,0.1h3.1l3.1-0.1l3.1,0.1l6.1,0.1l12.3,0.2
		c2,0,4.1-0.1,6.1-0.1l6.1-0.1c2-0.1,4.1-0.1,6.1-0.1h6.1L616.2,665.2L616.2,665.2z"/>
	<path class="st0" d="M665.8,697.3l-24.6,0.2l-12.3,0.1h-12.3l-12.3-0.1l-6.1-0.1h-3.1l-3.1-0.1c-2-0.1-4.1-0.1-6.1-0.1h-18.4
		c-0.5,0-1-0.4-1-1c0-2.3,0.1-4.7,0.1-7l0.1-7l0.2-14c0-0.3,0.3-0.6,0.6-0.6h12.2l12.3-0.1l24.6-0.2l24.6-0.2c4.1,0,8.2,0,12.3,0.1
		l12.3,0.1c0.5,0,1,0.4,1,1l0.2,27.9C667,696.8,666.5,697.3,665.8,697.3L665.8,697.3z M664.6,695l-0.2-26.7l1.4,1.4h-12.3l-12.3-0.2
		h-73.7l1.3-1.3l0.2,14l0.1,7c0,2.3,0.1,4.7,0,7l-1.5-1.5l12.3,0.2l6.1,0.2l3.1,0.1h3.1l3.1-0.1l3.1,0.1l6.1,0.1l12.3,0.2
		c2,0,4.1-0.1,6.1-0.1l6.1-0.1c2-0.1,4.1-0.1,6.1-0.1h6.1L664.6,695L664.6,695z"/>
</g>
<g>
	<path class="st0" d="M347.5,677.5l23.5-0.2l11.8-0.1h11.8l11.8,0.1l5.9,0.1c2,0,3.9,0,5.9,0.1c2,0.1,3.9,0.1,5.9,0.1h17.7
		c0.5,0,1,0.4,1,1c0,2.3,0,4.7-0.1,7l-0.1,7l-0.2,14c0,0.3-0.3,0.6-0.6,0.6H430l-11.8,0.1l-23.5,0.2l-23.5,0.2h-5.9l-5.9-0.1
		c-3.9-0.1-7.8-0.1-11.8-0.1c-0.5,0-1-0.4-1-1v-7l-0.1-7l-0.1-14C346.3,678,346.8,677.5,347.5,677.5L347.5,677.5z M348.7,679.9
		l0.2,26.7l-1.4-1.4c3.9,0,7.8-0.1,11.8,0l11.8,0.2h70.6l-1.3,1.3l-0.2-14l-0.1-7c0-2.3-0.1-4.7,0-7l1.5,1.5
		c-3.9,0-7.8-0.2-11.8-0.3l-5.9-0.2c-2-0.1-3.9-0.1-5.9,0c-2,0.1-3.9,0-5.9,0l-5.9-0.1l-11.8-0.2c-3.9,0-7.8,0.2-11.8,0.2
		c-2,0.1-3.9,0-5.9,0.1h-5.9L348.7,679.9L348.7,679.9z"/>
	<path class="st0" d="M397.4,737.6l-24.6,0.2l-12.3,0.1h-12.3l-12.3-0.1l-6.1-0.1h-3.1l-3.1-0.1c-2-0.1-4.1-0.1-6.1-0.1h-18.4
		c-0.5,0-1-0.4-1-1c0-2.3,0.1-4.7,0.1-7l0.1-7l0.2-14c0-0.3,0.3-0.6,0.6-0.6h12.2l12.3-0.1l24.6-0.2l24.6-0.2c4.1,0,8.2,0,12.3,0.1
		l12.3,0.1c0.5,0,1,0.4,1,1l0.2,27.9C398.6,737,398.1,737.6,397.4,737.6L397.4,737.6z M396.2,735.2l-0.2-26.7l1.4,1.4h-12.3
		l-12.3-0.2h-73.7l1.3-1.3l0.2,14l0.1,7c0,2.3,0.1,4.7,0,7l-1.5-1.5l12.3,0.2l6.1,0.2l3.1,0.1h3.1l3.1-0.1l3.1,0.1l6.1,0.1l12.3,0.2
		c2,0,4.1-0.1,6.1-0.1l6.1-0.1c2-0.1,4.1-0.1,6.1-0.1h6.1L396.2,735.2L396.2,735.2z"/>
	<path class="st0" d="M445.8,767.3l-24.6,0.2l-12.3,0.1h-12.3l-12.3-0.1l-6.1-0.1h-3.1l-3.1-0.1c-2-0.1-4.1-0.1-6.1-0.1h-18.4
		c-0.5,0-1-0.4-1-1c0-2.3,0.1-4.7,0.1-7l0.1-7l0.2-14c0-0.3,0.3-0.6,0.6-0.6h12.2l12.3-0.1l24.6-0.2l24.6-0.2c4.1,0,8.2,0,12.3,0.1
		l12.3,0.1c0.5,0,1,0.4,1,1l0.2,27.9C447,766.8,446.5,767.3,445.8,767.3L445.8,767.3z M444.6,765l-0.2-26.7l1.4,1.4h-12.3l-12.3-0.2
		h-73.7l1.3-1.3l0.2,14l0.1,7c0,2.3,0.1,4.7,0,7l-1.5-1.5l12.3,0.2l6.1,0.2l3.1,0.1h3.1l3.1-0.1l3.1,0.1l6.1,0.1l12.3,0.2
		c2,0,4.1-0.1,6.1-0.1l6.1-0.1c2-0.1,4.1-0.1,6.1-0.1h6.1L444.6,765L444.6,765z"/>
</g>
</svg>
