<?xml version="1.0" encoding="utf-8"?>
<!-- Generator: Adobe Illustrator 23.0.2, SVG Export Plug-In . SVG Version: 6.00 Build 0)  -->
<svg version="1.1" id="Layer_1" xmlns="http://www.w3.org/2000/svg" xmlns:xlink="http://www.w3.org/1999/xlink" x="0px" y="0px"
	 viewBox="0 0 90.78 73.37" style="enable-background:new 0 0 73.78 73.37;" xml:space="preserve">
<style type="text/css">
	.st0{fill-rule:evenodd;clip-rule:evenodd;fill:#7B7FC2;}
	.st1{fill:#7B7FC2;}
</style>
<g>
	<path class="st0" d="M44.23,21.08L32.04,53.47H18.74l7.87-20.9c-6.88-1.4-19.82-5.36-22.43-12.24c10.5,4.42,23.58,1.07,36.53-2.95
		c1.42-0.55,3.01,0.15,3.56,1.57C44.55,19.64,44.53,20.41,44.23,21.08z"/>
</g>
<g id="Layer_3">
	<path class="st0" d="M63.82,14.89L49.3,53.5H36.02l14.77-39.3l9.51-3.01c1.04-0.4,2.22-0.14,3.01,0.65
		C64.07,12.66,64.27,13.86,63.82,14.89z"/>
</g>
<g id="Layer_4">
	<path class="st0" d="M83.41,8.69c-4.19,11.1-10.37,27.5-13.68,36.28c-2.15,5.71-8.28,19.28-0.45,24.46
		C51.84,67.82,51.36,58.68,53,54.09L70.35,8l9.5-3.01c1.42-0.56,3.02,0.14,3.58,1.56c0.27,0.69,0.25,1.46-0.05,2.14L83.41,8.69z"/>
</g>
</svg>
