<?xml version="1.0" encoding="utf-8"?>
<!-- Generator: Adobe Illustrator 23.0.4, SVG Export Plug-In . SVG Version: 6.00 Build 0)  -->
<svg version="1.1" id="b1906fbd-debd-48f4-becc-050b3be1d47c"
	 xmlns="http://www.w3.org/2000/svg" xmlns:xlink="http://www.w3.org/1999/xlink" x="0px" y="0px" viewBox="0 0 347.7 579.5"
	 style="enable-background:new 0 0 347.7 579.5;" xml:space="preserve">
<style type="text/css">
	.st0{fill:#F2F2F2;}
	.st1{fill:none;stroke:#3F3D56;stroke-miterlimit:10;}
	.st2{fill:url(#SVGID_1_);}
	.st3{fill:#3F3D56;}
	.st4{opacity:0.1;enable-background:new    ;}
	.st5{fill:#FFB9B9;}
	.st6{opacity:5.000000e-02;enable-background:new    ;}
	.st7{fill:#575A89;}
	.st8{fill:#CDD0DB;}
	.st9{fill:#9DA7C0;}
	.st10{opacity:0.3;fill:#FFFFFF;enable-background:new    ;}
	.st11{opacity:0.1;}
	.st12{fill:#57B894;}
	.st13{fill:#656380;}
	.st14{opacity:0.2;enable-background:new    ;}
</style>
<title>accept request</title>
<ellipse class="st0" cx="168.2" cy="555.5" rx="154" ry="24"/>
<ellipse class="st1" cx="193.2" cy="546.5" rx="154" ry="24"/>
<linearGradient id="SVGID_1_" gradientUnits="userSpaceOnUse" x1="302.983" y1="-144.3051" x2="302.983" y2="421.75" gradientTransform="matrix(1 0 0 -1 -105.883 421.75)">
	<stop  offset="0" style="stop-color:#808080;stop-opacity:0.25"/>
	<stop  offset="0.5351" style="stop-color:#808080;stop-opacity:0.12"/>
	<stop  offset="1" style="stop-color:#808080;stop-opacity:0.1"/>
</linearGradient>
<path class="st2" d="M268.8,109.9c-0.4-0.5-0.9-1-1.4-1.5c3.6-4.1,7.3-8.3,7.3-13.6c0-6.4-5.7-11.3-7.8-17.3
	c-2.9-8.2,1.1-17,2.8-25.6c2.6-14.1-1.2-28.6-10.4-39.5c-1.7-2-3.6-3.9-6.1-4.7c-3.8-1.2-7.8,0.5-11.7,0.9
	c-13,1.6-24.8-9.6-37.8-8.6c-0.9,0-1.7,0.2-2.5,0.6c-1.7,0.8-2.6,2.6-3.6,4.1c-4.1,6-10.9,8.9-17.6,12c-0.9,0.2-1.7,0.6-2.4,1.1
	c-2,0.9-4,1.9-5.9,3.1c-12.8,7.6-10.9,18.2-3.4,24.7c-1.5,7.3-9,13.8-7.7,21.3c1,5.9,7.2,9.9,8.4,15.8c0.7,3.4-0.4,6.7-1.9,9.9
	c-14.3,3.3-30.5,9.4-31.7,20.2c-2.2,18.7-8.8,70.4-8.8,70.4s-7.6,41.4,21.4,21.8l-0.4,1.1c-5.2,15.9-8.8,32.2-10.7,48.8
	c-0.3,2.5-0.9,4.4-2,5c-0.4,0.2,0.4,0.6,2.1,1.1c-0.2,0.7-0.4,1.4-0.6,2.1c-3.2,12.1-5.2,24.5-6.1,37c-0.8,11.1-2.3,22.1-4.6,32.9
	c-6.9,34.6,0,79.1,0,79.1l15,70.7l2.6,12.1c1.7,1.9,3.8,3.4,6.1,4.4c1,4.3,1.7,8.7,2.1,13.2c0,0.5,0.1,1,0.1,1.5
	c-1.8,0.2-3.5,1.2-4.5,2.8c-5.4,7.5,0.8,13.6-19.9,28.6c-5.3,3.9-7.9,7.4-8.6,10.4l0,0v0c-0.7,3.2,0.8,5.9,3.5,7.6l0,0
	c0.5,0.3,0.9,0.6,1.4,0.8l0,0c0.3,0.1,0.5,0.2,0.8,0.3l0,0c0.3,0.1,0.5,0.2,0.8,0.3l0,0c0.3,0.1,0.5,0.2,0.8,0.3l0.1,0
	c0.3,0.1,0.6,0.2,0.9,0.2c0,0,0,0,0.1,0c0.3,0.1,0.5,0.1,0.8,0.2c0,0,0.1,0,0.1,0c0.3,0.1,0.6,0.1,0.9,0.1c0,0,0.1,0,0.1,0
	c0.3,0,0.5,0.1,0.8,0.1c0.1,0,0.1,0,0.2,0c0.3,0,0.6,0,0.9,0.1c0,0,0.1,0,0.1,0c0.3,0,0.5,0,0.8,0c0.1,0,0.1,0,0.2,0
	c0.3,0,0.6,0,0.9,0c0,0,0.1,0,0.1,0c0.3,0,0.5,0,0.8,0c0.1,0,0.1,0,0.2,0c0.3,0,0.6-0.1,0.9-0.1c0,0,0.1,0,0.1,0
	c0.3,0,0.5-0.1,0.8-0.1c0.1,0,0.2,0,0.2,0c0.3-0.1,0.6-0.1,0.9-0.2c0,0,0.1,0,0.1,0c0.3-0.1,0.5-0.1,0.8-0.2c0.1,0,0.2,0,0.2-0.1
	c0.3-0.1,0.6-0.2,0.9-0.3l0,0c0.3-0.1,0.6-0.2,0.8-0.3c0.1,0,0.1-0.1,0.2-0.1c0.3-0.1,0.6-0.2,0.9-0.4c13.8-6,42.1-21.8,42.1-21.8
	l0-0.1l0-0.1l0-0.1l0-0.1l0-0.2l0-0.2c0-0.1,0-0.2,0-0.2l0-0.2c0-0.1,0-0.2,0-0.3c0-0.1,0-0.2,0-0.2c0-0.1,0-0.2,0-0.4
	c0-0.2,0-0.4,0-0.7l0,0c-0.1-6.6-0.8-21.7-3.8-21.1c-1,0.2-1.7,1.6-2.4,3.3c-0.1-0.2-0.2-0.4-0.4-0.7c-2.9-5.6-7.1-15.3-7.5-24.7
	c2.4-1.7,4.5-3.6,6.5-5.8c0,0-1.5-6.5-2.8-13.3c-1.1-5.9-2.1-12.1-1.7-14.6c0.8-5.3-9.2-45.9-9.2-45.9s1-8.9,3.1-21.4
	c4-24.2,11.9-61.5,23.6-72.1c0.3-0.2,0.5-0.5,0.8-0.7c0,0,8.4,1.5,15.3,48.9l2,21.1c0.6,5.9,1.6,11.7,3,17.4
	c2.1,9.1,2.7,18.5,1.9,27.8c-0.9,12.5-1.2,27.1-1.4,37.4c-0.1,7.8-0.1,13-0.1,13c1.4,1.2,3,2.3,4.6,3.2v6.9c0,1.5-0.6,2.9-1.6,3.9
	l0,0c-1.1,1.2-1.9,2.7-2.3,4.2c-1.3,2.4-2.5,6.3-2.9,12.6c-1.5,20.3-2.3,18.1-2.3,18.1c-0.9,2.2-1.5,4.5-1.7,6.9l0,0v0
	c0,0.4-0.1,0.9-0.1,1.3c0,0.1,0,0.1,0,0.2c0,0.2,0,0.4,0,0.6c0,0.1,0,0.2,0,0.3c0,0.2,0,0.3,0,0.4c0,0.1,0,0.3,0,0.4
	c0,0.1,0,0.2,0,0.3c0,0.2,0.1,0.4,0.1,0.5c0,0.1,0,0.2,0.1,0.2c0,0.2,0.1,0.4,0.2,0.5c0,0.1,0,0.1,0.1,0.2c0.1,0.2,0.1,0.3,0.2,0.5
	c0,0,0,0.1,0.1,0.1c0.1,0.2,0.2,0.4,0.3,0.5c0,0,0.1,0.1,0.1,0.1c0.1,0.2,0.2,0.3,0.4,0.5c0,0,0.1,0.1,0.1,0.1
	c0.1,0.2,0.3,0.3,0.5,0.5c0,0,0,0,0.1,0c0.2,0.1,0.3,0.3,0.5,0.4c0,0,0.1,0,0.1,0.1c0.2,0.1,0.4,0.3,0.6,0.4c0,0,0.1,0,0.1,0.1
	c0.2,0.1,0.5,0.2,0.7,0.3c0,0,0.1,0,0.1,0c0.3,0.1,0.6,0.2,0.9,0.2l0,0c0.3,0.1,0.6,0.1,0.9,0.1c0,0,0.1,0,0.1,0c0.3,0,0.7,0,1,0.1
	c0.1,0,0.1,0,0.2,0c0.4,0,0.7,0,1.1,0c0.1,0,0.1,0,0.2,0c0.4,0,0.9-0.1,1.3-0.1c16.1-2.3,23.7-3.8,22.9-12.8
	c-0.5-5.4-1.8-13.4-2.7-18.8c-0.5-2.8-1.4-5.4-2.6-7.9c0-0.4,0.1-0.9,0.1-1.3c0.3-3.7,0.3-8.2-0.9-11.2l0.4-6.6
	c4-1,7.6-3.2,10.4-6.2c0,0,0.1-4.9,0.5-11.4c0.5-10,1.5-23.8,3.4-29.3c3.1-9,0-40.7,0-40.7s-11.5-54.2-0.8-77.6
	c9.4-20.6,9.4-41.2,0.3-61.3c0.2-0.1,0.3-0.3,0.5-0.5c0,0-2.3-1.5-1.5-18.8c0.6-13.2-3.3-26.9-5.2-32.6c2.9,1.3,5.9,2.3,9,3.2
	c17.6,5.3,19.1-14.3,19.1-14.3l3.8-29.4l4.5-43.8l0,0C276,128.5,277.7,119.9,268.8,109.9z M191.1,80.9c0,0.5-0.1,1-0.1,1.5
	c-0.1,1.6-0.5,3.1-1,4.6c0.5-2,0.8-4,0.9-6.1C191,80.8,191,80.8,191.1,80.9L191.1,80.9z M237.3,187.8c0.3,0.5,0.5,1,0.8,1.5l-1.9-1
	c0.7-3.6,1.9-7,3.4-10.3c1.9-3.8,3.5-7.8,4.7-11.8c-0.1,4.7,0.2,9.4,0.7,14.1C246.5,192.3,237.3,187.8,237.3,187.8z"/>
<path class="st3" d="M172.5,24c-2.4,1.7-5,3.6-5.9,6.4c-1.4,4.6,2.1,9.1,2.5,13.9c0.6,8.7-9.2,15.8-7.7,24.4c1,5.9,7,9.9,8.2,15.7
	c1.7,8.5-7.5,16-6.8,24.7c0.4,4.6,3.6,8.5,7.2,11.4c5.1,4,11.2,6.5,17.6,7.2c-0.4-7.4-5.9-14.1-5-21.5c0.6-5,4.2-9.2,6.2-13.8
	c3.6-8.2,2.5-17.6,0.3-26.3s-5.3-17.2-5.4-26.2c-0.1-5.4,2.4-13.3,0.6-18.4C182,15.4,176.6,21.2,172.5,24z"/>
<path class="st4" d="M172.5,24.2c-2.4,1.7-5,3.6-5.9,6.4c-1.4,4.6,2.1,9.1,2.5,13.9c0.6,8.7-9.2,15.8-7.7,24.4c1,5.9,7,9.9,8.2,15.7
	c1.7,8.5-7.5,16-6.8,24.7c0.4,4.6,3.6,8.5,7.2,11.4c5.1,4,11.2,6.5,17.6,7.2c-0.4-7.4-5.9-14.1-5-21.5c0.6-5,4.2-9.2,6.2-13.8
	c3.6-8.2,2.5-17.6,0.3-26.3s-5.3-17.2-5.4-26.2c-0.1-5.4,2.4-13.3,0.6-18.4C182,15.6,176.6,21.4,172.5,24.2z"/>
<path class="st5" d="M179.6,523.9l-6.7,6.7c0,0-23.9,12.7-20.9-4.5c0.8-5.1,1-10.3,0.5-15.4c-0.6-7.2-2-14.3-4.2-21.1l22.4-4.5
	c-3.7,11.7,2.4,26.5,6.2,34C178.4,522,179.6,523.9,179.6,523.9z"/>
<path class="st5" d="M230.5,510.3c-0.2,2.3-0.5,4.6-0.9,6.9c0,0-18.7,12.7-20.2-1.5c-1-9.2,1.2-13.4,2.9-15.2l0,0
	c1-1.1,1.6-2.4,1.6-3.9v-16.7l16.4,5.2l-0.7,14.2C230.8,502.2,230.8,506.6,230.5,510.3z"/>
<path class="st6" d="M179.6,523.9l-6.7,6.7c0,0-23.9,12.7-20.9-4.5c0.8-5.1,1-10.3,0.5-15.4c5.2-0.8,11.4,5,11.4,5
	c8.8,12.4,11.1,7.7,13,3.3C178.4,522,179.6,523.9,179.6,523.9z"/>
<path class="st3" d="M163.9,517.1c0,0-10.5-9.7-15.7-2.2s0.7,13.4-19.4,28.4s0,24.6,13.4,18.7s41.1-21.7,41.1-21.7s0-24.6-3.7-23.9
	S176.6,535.1,163.9,517.1z"/>
<path class="st6" d="M230.5,510.3c-0.2,2.3-0.5,4.6-0.9,6.9c0,0-18.7,12.7-20.2-1.5c-1-9.2,1.2-13.4,2.9-15.2c1.3-1,3.1-1.2,4.6-0.5
	c3-1.3,6.3,0.9,9,3.8C227.8,505.7,229.3,507.9,230.5,510.3z"/>
<path class="st3" d="M217,501.5c0,0-8.2-4.5-9.7,15.7s-2.2,17.9-2.2,17.9s-7.5,17.9,8.2,15.7s23.2-3.7,22.4-12.7
	c-0.5-5.4-1.7-13.2-2.6-18.6c-0.9-5.3-3.3-10.3-7-14.2C223.2,502.3,219.9,500.1,217,501.5z"/>
<path class="st3" d="M243.8,405.9c0,0,3,31.4,0,40.3c-1.8,5.4-2.8,19.1-3.3,29.1c-0.3,6.4-0.4,11.3-0.4,11.3
	c-14.2,14.9-30.6,0-30.6,0s0-5.2,0.1-12.9c0.2-10.2,0.5-24.7,1.4-37.1c0.8-9.2,0.1-18.5-1.9-27.5c-1.4-5.7-2.3-11.4-2.9-17.2
	l-1.9-21c-6.7-47-14.9-48.5-14.9-48.5c-0.3,0.2-0.5,0.4-0.8,0.7c-11.5,10.5-19.2,47.5-23.1,71.5c-2,12.3-3,21.2-3,21.2
	s9.7,40.3,9,45.6c-0.3,2.4,0.6,8.6,1.7,14.4c1.3,6.8,2.8,13.2,2.8,13.2c-18.7,20.2-31.4,4.5-31.4,4.5l-2.5-12l-14.7-70.2
	c0,0-6.7-44.1,0-78.4c2.2-10.8,3.7-21.7,4.5-32.7c0.8-12.4,2.8-24.7,6-36.7c0.9-3.6,1.9-7.1,3-10.6c1.7-5.2,28-4.9,54.4-4.9
	c19.8,0,38.7,2.7,44.1,12.3c1.3,2.2,2.4,4.4,3.4,6.6c9.5,20.3,9.7,41.2,0.3,62.1C232.6,352.1,243.8,405.9,243.8,405.9z"/>
<path class="st5" d="M181.1,134.8c0,0-39.6-40.3-9.7-37.3c6.8,0.7,11.4-0.5,14.4-2.8c3.5-2.6,4.9-6.5,5.3-10.7
	c0.8-8.2-2.5-17.1-2.5-17.1s40.3-32.1,32.1,8.2c-0.9,4.1-1.4,8.3-1.6,12.5c-0.1,8.6,2.7,11.8,6.6,13.2c6.7,2.3,16.6-0.9,21.1,6.5
	C255,120.6,181.1,134.8,181.1,134.8z"/>
<path class="st4" d="M181.1,134.8c0,0-39.6-40.3-9.7-37.3c6.8,0.7,11.4-0.5,14.4-2.8c3.5-2.6,4.9-6.5,5.3-10.7
	c0.8-8.2-2.5-17.1-2.5-17.1s40.3-32.1,32.1,8.2c-0.9,4.1-1.4,8.3-1.6,12.5c-0.1,8.6,2.7,11.8,6.6,13.2c6.7,2.3,16.6-0.9,21.1,6.5
	C255,120.6,181.1,134.8,181.1,134.8z"/>
<path class="st5" d="M240.9,55.6c0,17.7-14.4,32.1-32.1,32.1c-17.7,0-32.1-14.4-32.1-32.1c0-0.6,0-1.2,0.1-1.8
	c1-17.7,16.1-31.3,33.8-30.3C227.5,24.5,240.9,38.6,240.9,55.6L240.9,55.6z"/>
<path class="st6" d="M181.1,134.8c0,0-39.6-40.3-9.7-37.3c6.8,0.7,11.4-0.5,14.4-2.8c-5.8,9.6-12.3,26.8,17,25.2
	c26.8-1.5,26.3-12.2,23-19.2c6.7,2.3,16.6-0.9,21.1,6.5C255,120.6,181.1,134.8,181.1,134.8z"/>
<path class="st4" d="M243.8,270c-6.8,8.8-93.4-2.7-106.1-6.6c0.9-3.6,1.9-7.1,3-10.6c1.7-5.2,28-4.9,54.4-4.9
	c19.8,0,38.7,2.7,44.1,12.3c1.3,2.2,2.4,4.4,3.4,6.6C243.3,269.6,243.8,270,243.8,270z"/>
<path class="st7" d="M189.3,90.7c0,0-50.4,4.1-52.6,23.5c-2.1,18.6-8.6,69.8-8.6,69.8s-7.5,41.1,20.9,21.7l-0.4,1.1
	c-5.1,15.7-8.6,32-10.4,48.4c-0.3,2.4-0.9,4.4-1.9,5c-3.7,2.2,100.1,17.2,107.5,7.5c0,0-2.2-1.5-1.5-18.7s-6-35.1-6-35.1
	s-6-17.9,2.2-35.1s5.2-22.4,5.2-22.4l28.4-21.7c0,0,6.1-10.5-5.1-23.5c-6.8-7.7-16.4-12.5-26.7-13.1l-19.6-1.4
	c0,0,21.5,23.1-18.9,25.3S189.3,90.7,189.3,90.7z"/>
<path class="st6" d="M155.7,131.8c0,0,1.5,11.9-1.5,15.7s-3.7,20.9,0,31.4"/>
<path class="st4" d="M188.5,322.9c-11.5,10.5-19.2,47.5-23.1,71.5c-5.4-33.4,17.2-88.6,17.2-88.6L188.5,322.9z"/>
<path class="st4" d="M175.9,488.8c-18.7,20.2-31.4,4.5-31.4,4.5l-2.5-12c7.1,3.7,19,6.5,31.1-5.7
	C174.4,482.3,175.9,488.8,175.9,488.8z"/>
<path class="st4" d="M240.5,475.3c-0.3,6.4-0.4,11.3-0.4,11.3c-14.2,14.9-30.6,0-30.6,0s0-5.2,0.1-12.9
	C215.8,477.5,226.8,481.8,240.5,475.3z"/>
<path class="st8" d="M163.2,157.2h43.3c2.1,0,3.8,1.7,3.8,3.8v13.4c0,2.1-1.7,3.8-3.8,3.8h-43.3c-2.1,0-3.8-1.7-3.8-3.8v-13.4
	C159.5,158.9,161.1,157.2,163.2,157.2z"/>
<path class="st6" d="M163.2,157.2h43.3c2.1,0,3.8,1.7,3.8,3.8v13.4c0,2.1-1.7,3.8-3.8,3.8h-43.3c-2.1,0-3.8-1.7-3.8-3.8v-13.4
	C159.5,158.9,161.1,157.2,163.2,157.2z"/>
<path class="st3" d="M163.2,157.9h43.3c2.1,0,3.8,1.7,3.8,3.8v13.4c0,2.1-1.7,3.8-3.8,3.8h-43.3c-2.1,0-3.8-1.7-3.8-3.8v-13.4
	C159.5,159.6,161.1,157.9,163.2,157.9z"/>
<circle class="st9" cx="199.4" cy="168" r="2.2"/>
<path class="st6" d="M137.8,190.3c1.4-4.1,4.5-7.3,8.4-8.9c3.2-1.2,5.7-3.5,7.2-6.5c2.9-6.5,8.2-13.2,21.6-8.8s-3.7,7.5-3.7,7.5
	s30.6-4.5,18.7,4.5s-26.9,14.2-26.9,14.2l-7.4,7.8c-4.1,4.5-11.1,4.7-15.5,0.6c-0.3-0.3-0.6-0.6-0.9-0.9
	C137.2,197.1,136.6,193.5,137.8,190.3z"/>
<path class="st5" d="M137.1,188.8c1.4-4.1,4.5-7.3,8.4-8.9c3.2-1.2,5.7-3.5,7.2-6.5c2.9-6.5,8.2-13.2,21.6-8.8s-3.7,7.5-3.7,7.5
	s30.6-4.5,18.7,4.5s-26.9,14.2-26.9,14.2l-7.4,7.8c-4.1,4.5-11.1,4.7-15.5,0.6c-0.3-0.3-0.6-0.6-0.9-0.9
	C136.5,195.6,135.9,192,137.1,188.8z"/>
<path class="st6" d="M242.3,204.2l-5.2,12.7l-6.7-4.9l-18.7-13.7l-12.7-8.2c-17.9-13.4,0-15.7,0-15.7c-6.7-3,0-6,0-6
	c23.9-5.2,19.4,14.2,19.4,14.2l15.1,7.8l5,2.6L242.3,204.2z"/>
<path class="st5" d="M243.8,202.7l-5.2,12.7l-6.7-4.9l-18.7-13.7l-12.7-8.2c-17.9-13.4,0-15.7,0-15.7c-6.7-3,0-6,0-6
	c23.9-5.2,19.4,14.2,19.4,14.2l15.1,7.8l5,2.6L243.8,202.7z"/>
<path class="st6" d="M243.8,202.7l-5.2,12.7l-6.7-4.9c6.1,0.2,13.2-2.7,3.2-21.6l5,2.6L243.8,202.7z"/>
<path class="st7" d="M271.5,127.3l1.4,5.9l-4.4,43.4l-3.7,29.1c0,0-1.5,19.4-18.7,14.2s-18.7-10.5-18.7-10.5s24.6,8.2,9-20.9
	c0,0,9,4.5,7.5-7.5s0-32.9,0-32.9L271.5,127.3z"/>
<path class="st6" d="M240.9,55.6c0,15-10.4,28-25,31.3c-1.1-3.1-1.8-6.2-1.1-9.3c1.5-6.1,8.6-10.6,7.8-16.8c-0.1-0.7-0.3-1.4-0.7-2
	c-1.6-2.1-4.8-1-7.3-0.5c-6.9,1.1-13.6-3-15.6-9.6c-5.8,5.8-14.4,7.7-22.2,5.1c1-17.7,16.1-31.3,33.8-30.3
	C227.5,24.5,240.9,38.6,240.9,55.6L240.9,55.6z"/>
<path class="st3" d="M199.6,47.2c2.1,6.7,8.7,10.8,15.6,9.6c2.6-0.5,5.8-1.5,7.3,0.5c0.4,0.6,0.6,1.2,0.7,1.9
	c0.8,6.2-6.3,10.7-7.8,16.8c-1.6,6.3,3,12.4,4,18.8c0.5,3.5,0,7.1,0,10.6s0.8,7.3,3.5,9.7s7.5,2.4,9.2-0.7c8.4,4.4,5,18.2,11.4,25.2
	c3.5,3.9,9.3,4.8,14.5,4.3c1.2,0,2.4-0.4,3.4-1.1c0.9-0.9,1.4-1.9,1.7-3.1c1.3-5,1.1-10.3-0.7-15.1c-0.8-2.3-2-4.7-1.7-7.1
	c0.4-1.9,1.3-3.7,2.6-5.1c4-5,9.5-9.8,9.4-16.2c0-6.3-5.6-11.2-7.6-17.2c-2.8-8.2,1.1-16.9,2.7-25.4c2.5-13.9-1.2-28.3-10.2-39.2
	c-1.6-2-3.5-3.8-5.9-4.6c-3.7-1.2-7.6,0.5-11.4,0.9c-12.7,1.6-24.2-9.5-36.9-8.5c-0.8,0-1.7,0.2-2.5,0.6c-1.6,0.8-2.5,2.6-3.6,4.1
	c-5.6,8.4-16.7,10.8-25.3,16C146.8,38.3,180.3,65.8,199.6,47.2z"/>
<path class="st10" d="M142.3,559c-8.7,3.9-20.3,1.1-21.8-5.3c-1.8,8.6,11.8,12.8,21.8,8.3c13.4-6,41.1-21.7,41.1-21.7s0-1.2,0-3
	C182.5,537.8,155.5,553.1,142.3,559z"/>
<path class="st10" d="M235.6,537.6c-0.9,6.7-8.3,8.1-22.4,10.1c-7.1,1-9.5-2.1-9.9-5.9c-0.5,4.8,0.9,10.2,9.9,8.9
	c15.7-2.2,23.2-3.7,22.4-12.7C235.6,537.9,235.6,537.8,235.6,537.6z"/>
<g class="st11">
	<path d="M261.2,140.8c-5.2,0.5-11-0.4-14.5-4.3c-6.4-7-3-20.8-11.4-25.2c-1.8,3.1-6.6,3.1-9.2,0.7s-3.4-6.2-3.5-9.7s0.5-7.1,0-10.6
		c-1-6.4-5.6-12.5-4-18.8c1.5-6.1,8.6-10.6,7.8-16.8c-0.1-0.7-0.3-1.4-0.7-1.9c-1.6-2.1-4.8-1-7.3-0.5c-6.9,1.1-13.5-3-15.6-9.6
		C185.3,60.6,156.8,40.3,169,25c-19,15.5,12.2,39.7,30.7,21.9c2.1,6.7,8.7,10.8,15.6,9.6c2.6-0.5,5.8-1.5,7.3,0.5
		c0.4,0.6,0.6,1.2,0.7,1.9c0.8,6.2-6.3,10.7-7.8,16.8c-1.6,6.3,3,12.4,4,18.8c0.5,3.5,0,7.1,0,10.6s0.8,7.3,3.5,9.7s7.5,2.4,9.2-0.7
		c8.4,4.4,5,18.2,11.4,25.2c3.5,3.9,9.3,4.8,14.5,4.3c1.2,0,2.4-0.4,3.4-1.1c0.6-0.6,1.1-1.3,1.4-2.2
		C262.4,140.7,261.8,140.8,261.2,140.8z"/>
	<path d="M200.5,3.8c0.3-0.4,0.5-0.8,0.8-1.2c-0.1,0-0.1,0-0.2,0.1c-1.6,0.8-2.5,2.6-3.6,4.1c-0.4,0.5-0.7,1-1.1,1.5
		C198,7,199.3,5.5,200.5,3.8z"/>
</g>
<path class="st4" d="M159.5,212.7c0,0-1.9,6.7,10.8,9.7S159.5,212.7,159.5,212.7z"/>
<path class="st4" d="M153.9,232.6c0,0-6.5,4.7,9.2,12.9S153.9,232.6,153.9,232.6z"/>
<path class="st4" d="M139.3,311.5c0,0,17.6-5,20-12.4S139.3,311.5,139.3,311.5z"/>
<path class="st4" d="M139.3,406.1c0,0,7.6,3.7,12.4,3.2S139.3,406.1,139.3,406.1z"/>
<path class="st4" d="M142,416.6c0,0,3.4,1.7,9.7,2S142,416.6,142,416.6z"/>
<path class="st12" d="M270.7,445.2c8.1,2.9,17-1.2,19.9-9.3c2.9-8.1-1.2-17-9.3-19.9c-2.7-1-5.7-1.2-8.5-0.6l0.4,8l-3.8-6.8
	c-3.7,1.7-6.6,4.9-8,8.7c-0.5,1.4-0.8,2.8-0.9,4.2C260,436.4,264.2,442.8,270.7,445.2z"/>
<path class="st1" d="M289.4,537.9c-1.3-6.8,4.4-12.8,10.2-16.7s12.4-7.8,14.3-14.4c2.8-9.6-5.5-18.3-12-25.8
	c-4.8-5.6-9-11.7-12.3-18.3c-1.5-2.6-2.5-5.4-2.9-8.3c-0.5-4.2,0.8-8.4,2.2-12.5c4.6-13.5,9.4-26.8,14.6-40"/>
<path class="st1" d="M271.4,443.1c8.1,2.9,17-1.2,19.9-9.3c2.9-8.1-1.2-17-9.3-19.9c-2.7-1-5.7-1.2-8.5-0.6l0.4,8l-3.8-6.8
	c-3.7,1.7-6.6,4.9-8,8.7c-0.5,1.4-0.8,2.8-0.9,4.2C260.7,434.4,264.8,440.8,271.4,443.1z"/>
<path class="st12" d="M287.5,399c1.8-5,6-8.7,11.2-9.8l1.3,7.6l2.4-8c8.6,0.1,15.4,7.2,15.3,15.8s-7.2,15.4-15.8,15.3
	c-8.6-0.1-15.4-7.2-15.3-15.8C286.6,402.3,286.9,400.6,287.5,399L287.5,399z"/>
<path class="st1" d="M288.4,396.2c1.8-5,6-8.7,11.2-9.8l1.3,7.6l2.4-8c8.6,0.1,15.4,7.2,15.3,15.8s-7.2,15.4-15.8,15.3
	c-8.6-0.1-15.4-7.2-15.3-15.8C287.5,399.6,287.8,397.9,288.4,396.2L288.4,396.2z"/>
<path class="st12" d="M299.2,481.1c8.1,2.9,17-1.2,19.9-9.3c2.5-6.8-0.1-14.4-6.1-18.3l-1.8,6.1l-1.3-7.7c0,0,0,0,0,0
	c-8.1-2.9-17,1.2-19.9,9.3C286.9,469.2,291.1,478.1,299.2,481.1C299.1,481,299.2,481,299.2,481.1L299.2,481.1z"/>
<path class="st1" d="M299.9,478.3c8.1,2.9,17-1.2,19.9-9.3c2.5-6.8-0.1-14.4-6.1-18.3l-1.8,6.1l-1.3-7.7c0,0,0,0,0,0
	c-8.1-2.9-17,1.2-19.9,9.3C287.7,466.4,291.8,475.3,299.9,478.3C299.9,478.3,299.9,478.3,299.9,478.3L299.9,478.3z"/>
<path class="st12" d="M283,506.8c1.5,8.4,9.5,14.1,18,12.6c8.4-1.5,14.1-9.5,12.6-18c-1.5-8.4-9.5-14.1-18-12.6
	c-3.8,0.7-7.2,2.7-9.6,5.8l6.9,10.4l-9.5-5.5C282.7,501.9,282.6,504.4,283,506.8z"/>
<path class="st1" d="M283.6,504.8c1.5,8.4,9.5,14.1,18,12.6c8.4-1.5,14.1-9.5,12.6-18c-1.5-8.4-9.5-14.1-18-12.6
	c-3.8,0.7-7.2,2.7-9.6,5.8l6.9,10.4l-9.5-5.5C283.4,499.9,283.2,502.4,283.6,504.8z"/>
<path class="st13" d="M267.9,547.1c0,0,13.7-5.4,17.8-8.3s21.1-6.5,22.1-1.7s20.6,23.5,5.1,23.6s-35.9,2.5-40.1,0
	S267.9,547.1,267.9,547.1z"/>
<path class="st14" d="M313.2,559c-15.5,0.1-35.9,2.5-40.1,0c-3.1-1.9-4.4-8.8-4.8-11.9c-0.3,0-0.5,0-0.5,0s0.9,11.1,5,13.6
	s24.6,0.1,40.1,0c4.5,0,6-1.6,5.9-4C318.2,558.1,316.5,559,313.2,559z"/>
</svg>
