<?xml version="1.0" encoding="utf-8"?>
<!-- Generator: Adobe Illustrator 24.0.1, SVG Export Plug-In . SVG Version: 6.00 Build 0)  -->
<svg version="1.1" id="Layer_1" xmlns="http://www.w3.org/2000/svg" xmlns:xlink="http://www.w3.org/1999/xlink" x="0px" y="0px"
	 viewBox="0 0 221 209" style="enable-background:new 0 0 221 209;" xml:space="preserve">
<style type="text/css">
	.st0{fill:#ffffff;}
	.st1{fill:#ffffff;}
</style>
<g id="layer101">
	<path class="st0" d="M57.3,150.7L4,97.5L3.8,51.2C3.6,25.8,3.7,5,4,5s34.8,34.3,76.8,76.3l76.2,76.2l-23.3,23.3L110.5,204
		L57.3,150.7z"/>
	<path class="st0" d="M3.5,157.5c0-21.2,0.3-38.4,0.7-38.2c0.4,0.1,9.3,8.7,19.8,19.2l19.1,18.9l-19.3,19.3
		C13.2,187.3,4.3,196,4,196S3.5,178.7,3.5,157.5z"/>
	<path class="st0" d="M196.7,177.2C186.4,166.9,178,158,178,157.5c0-1.2,37.1-38.5,38.3-38.5c0.4,0,0.7,17.3,0.7,38.5
		s-0.3,38.5-0.8,38.5C215.8,196,207,187.6,196.7,177.2z"/>
	<path class="st0" d="M143.7,124.2C131.2,111.7,121,101,121,100.5C121,99.3,215.1,5,216.3,5c0.4,0,0.7,20.8,0.7,46.3v46.2
		l-24.8,24.8C178.6,135.9,167.3,147,167,147C166.7,147,156.2,136.8,143.7,124.2z"/>
</g>
<g id="layer102">
	<path class="st1" d="M132.8,181l23.2-23.5L79.7,81.2C37.8,39.3,3.7,5,4,5s34.8,34.3,76.8,76.3l76.2,76.2L133.3,181l-23.8,23.5
		L132.8,181z"/>
	<path class="st1" d="M23,176.3c10.7-10.9,19.7-19.7,20-19.5C43.5,157.1,4.8,196,4,196C3.7,196,12.2,187.1,23,176.3z"/>
	<path class="st1" d="M196.7,177.2C186.4,166.9,178,158,178,157.5c0-1.2,37.1-38.5,38.3-38.5c0.4,0,0.7,17.3,0.7,38.5
		s-0.3,38.5-0.8,38.5C215.8,196,207,187.6,196.7,177.2z"/>
	<path class="st1" d="M143.7,124.2C131.2,111.7,121,101,121,100.5C121,99.3,215.1,5,216.3,5c0.4,0,0.7,20.8,0.7,46.3v46.2
		l-24.8,24.8C178.6,135.9,167.3,147,167,147C166.7,147,156.2,136.8,143.7,124.2z"/>
</g>
</svg>
